<?xml version="1.0" encoding="UTF-8" standalone="no"?>
<svg
   xmlns:dc="http://purl.org/dc/elements/1.1/"
   xmlns:cc="http://creativecommons.org/ns#"
   xmlns:rdf="http://www.w3.org/1999/02/22-rdf-syntax-ns#"
   xmlns:svg="http://www.w3.org/2000/svg"
   xmlns="http://www.w3.org/2000/svg"
   xml:space="preserve"
   style="enable-background:new 483.1 362.8 141.7 125.2;"
   viewBox="483.1 362.8 141.7 125.2"
   y="50"
   x="50"
   fill="#D3D3D3"
   id="svg"
   version="1.1"><metadata
     id="metadata9"><rdf:RDF><cc:Work
         rdf:about=""><dc:format>image/svg+xml</dc:format><dc:type
           rdf:resource="http://purl.org/dc/dcmitype/StillImage" /></cc:Work></rdf:RDF></metadata><defs
     id="defs7" /><g
     id="svgg"><path
       d="M492,363c-3.8,0.2-6.7,2.1-8,5.1c-0.9,1.9-0.9,6.2-0.8,63.5l0.1,49.6l0.5,1.1c1.1,2.4,2.6,3.9,4.9,5.1l1.3,0.7   h64h64l1.2-0.6c2.4-1.1,3.7-2.4,4.9-4.8l0.7-1.4v-55.7v-55.7l-0.7-1.5c-1.2-2.4-2.7-3.8-5.3-5l-1-0.4l-61.9,0   C521.9,362.8,493.1,362.9,492,363 M500.3,369c5.9,2,6.5,9.9,1.1,12.9c-4.6,2.5-10.2-0.9-10.2-6.2   C491.2,370.7,495.7,367.4,500.3,369 M518.9,368.8c4.5,1.2,6.6,6.7,4,10.6c-3.5,5.3-12.1,3.5-12.7-2.7   C509.7,371.3,513.9,367.5,518.9,368.8 M538.8,369.2c4.5,2.2,5.5,8,2,11.4c-3.9,3.9-10.4,1.9-11.8-3.6   C527.7,371.7,533.9,366.7,538.8,369.2 M609.5,388.2c7.4,0.1,7.2,0.1,7.5,0.9c0.2,0.6,0.4,83.7,0.1,88.1c-0.2,3.4,0,3.2-2.7,3.3   c-6.1,0.4-122.6,0.2-123.1-0.3c-0.6-0.6-0.8-88.8-0.2-91.2c0.2-0.7,0.3-0.7,6.2-0.8C506.1,388,602.1,388,609.5,388.2"
       id="path0" /></g></svg>