<svg xmlns="http://www.w3.org/2000/svg" xmlns:xlink="http://www.w3.org/1999/xlink" version="1.1" width="50" height="50"><rect id="backgroundrect" width="100%" height="100%" x="0" y="0" fill="none" stroke="none" style="" class=""/><g class="currentLayer" style=""><title>Layer 1</title><g id="svgg" class=""><path id="path0" d="M22.3043375381427,1.5646635059488725 C8.194613548679538,3.1649187079914682 -1.5076281385465071,16.178909277814988 1.0351997957893007,30.09396712267477 C2.5291192807064276,38.26886262045331 8.441823960634583,45.32830569484523 16.240658504734483,48.24816645018083 C18.604739263345767,49.133317252081994 18.838386203972135,48.881252289779134 18.838386203972135,45.44524304849088 L18.838386203972135,42.94392057141202 L18.52125932671563,43.02090432922875 C17.71939981935522,43.215799918638176 15.204829116954183,43.22635676306452 14.409751345258131,43.0384449322756 C12.535570253447368,42.595382292351495 11.455982523642367,41.67482545837428 10.492168709821533,39.69809694278914 C9.782347043620097,38.24206447690952 9.185231365364205,37.44786495006609 8.300860740754276,36.78359581616229 C7.017498001225382,35.81967471354148 6.7896639768827445,35.4191642773051 7.391300812248202,35.185289570013786 C8.630259330165313,34.70357263819014 10.755364641556826,35.846472857085274 11.865147242057848,37.59143803426438 C13.077786166801427,39.49832896364447 14.504534174662187,40.28262129802626 16.525329932740206,40.15317814406015 C17.763642571070235,40.07375819137581 18.953675710266,39.68526631648635 18.953675710266,39.360440334137294 C18.953675710266,38.90958187063682 19.446643305105162,37.676380028648644 19.886164364113426,37.02754012890642 C20.40496714243581,36.26192528850971 20.549805639838606,36.38357261889943 18.749093351058264,36.07320139276491 C13.01707348561586,35.08540558044145 10.07153962873538,31.919651556467603 9.485888313150163,26.117122620775348 C9.180871678151414,23.096728223902705 9.764908294768931,20.689605281705074 11.308237568097711,18.60584660493592 L11.864339892573993,17.855011346736088 L11.668476907791842,17.10092782871277 C11.286439132033747,15.629790954653922 11.474713031667706,12.986519523288518 12.052290852414407,11.711415129577327 C12.409139324276367,10.923874535372056 15.59106511002831,11.876426728610648 18.190407508233648,13.548955711725897 L18.79333610277327,13.936797934650668 L20.055707755722047,13.668978912203881 C23.243930867448018,12.992528803961976 26.54292232835828,12.992528803961976 29.731306909981022,13.668978912203881 L30.9936785629298,13.936797934650668 L31.59660715746942,13.548955711725897 C33.39392857841759,12.392412801572114 35.45331564182367,11.569628588281972 36.84954583919488,11.450255039768697 L37.617981077923865,11.384477778343012 L37.93317031641913,12.357494008469589 C38.36090407296318,13.678236452700824 38.451650154947984,15.820301393301639 38.132101229239915,17.053340822298633 L37.918960965503366,17.875800209606425 L38.47619357925704,18.61477931945051 C40.37556397496393,21.133804812567398 40.873214196809435,24.629257208625532 39.88840929640848,28.53431516842581 C38.78783048002337,32.897865002311775 35.640943661870544,35.440927618122494 30.458405855136863,36.15473271433453 C29.3434562179392,36.30837540398562 29.33312214454591,36.31714570550905 29.722103125865125,36.78457029410933 C30.7705271655935,38.04457027964129 30.948628461730934,39.092946137672854 30.948628461730934,44.0036653388258 C30.948628461730934,49.08995298343839 31.01466964950992,49.19795762256944 33.546356160968585,48.2465423202691 C46.72488325575848,43.2934333284196 52.87284957528072,28.00760983804682 46.806909963317715,15.2767051118405 C42.39765149221611,6.022900113689588 32.38764818174622,0.42111363508904454 22.3043375381427,1.5646635059488725 M9.227052068627671,35.85573039758223 C9.010036527368626,36.07401345772078 9.449073176686582,36.41508073918729 9.725671109853792,36.24324779452464 C9.857430545618206,36.16122923398151 9.858883774689133,36.112505336629155 9.734067544485839,35.96129884184566 C9.576149985444664,35.769813925250894 9.357681215114692,35.72433828772203 9.227052068627671,35.85573039758223 M10.245281237660024,36.70758653629261 C10.101895969328163,36.94081159161922 10.313583003993784,37.28658884982979 10.59970766107044,37.28658884982979 C10.933142997900731,37.28658884982979 10.965436977254749,37.05206449057378 10.669301186578354,36.78245892522407 C10.424835762868398,36.55995312731496 10.344585224173647,36.54582319708278 10.245281237660024,36.70758653629261 M11.14660620143082,38.05642642799704 C11.050531612852604,38.30800415132637 11.250431345054006,38.61204127080508 11.540431279653141,38.65573036543103 C11.846578203929282,38.7018556549246 11.944751901165516,38.42023152822797 11.72999693846126,38.111971670978726 C11.526221928737371,37.819303460882224 11.247201947118599,37.79283014332079 11.14660620143082,38.05642642799704 M12.264300826873571,39.52545193317062 C12.264300826873571,39.86148441191071 12.467429957010381,40.07083475753467 12.793922088279558,40.07083475753467 C13.121867448619662,40.07083475753467 13.214551169365711,39.814059818487756 12.998665917384065,39.50401341833558 C12.757752831403053,39.15807374713384 12.264300826873571,39.17252850334838 12.264300826873571,39.52545193317062 M13.920013148354359,40.47832895239156 C13.81312007669254,40.758653775158784 14.108771457678623,41.01461664924984 14.494523041062433,40.97579994435912 C14.905302458445611,40.93438463160962 14.998954998572286,40.74988347363536 14.74092610353364,40.4901851007473 C14.505825933836348,40.253874198588356 14.00849865178438,40.24656561398551 13.920013148354359,40.47832895239156 M17.82855346957182,40.5527141023495 C17.604271782958126,40.77846816008208 17.6590100779632,40.98781850570603 17.962573483891013,41.064477437540425 C18.317968726682047,41.154291821659925 18.747963061780876,40.925451917095025 18.700167972336914,40.67192523787159 C18.65495640124128,40.43171642392447 18.033458768573098,40.34677442954019 17.82855346957182,40.5527141023495 M15.880580634937129,40.82670481846092 C15.839890220951053,40.933572566653744 15.889945888949791,41.099233817651765 15.99506279174713,41.204964674906385 C16.245987011327898,41.45719205020041 16.820012494345665,41.27155400128793 16.820012494345665,40.93812013040664 C16.820012494345665,40.6292106211927 15.993286622882668,40.53127558751445 15.880580634937129,40.82670481846092 " stroke="none" fill="#D3D3D3" fill-rule="evenodd"/></g></g></svg>