<?xml version="1.0" encoding="utf-8"?>
<!-- Generator: Adobe Illustrator 19.0.0, SVG Export Plug-In . SVG Version: 6.00 Build 0)  -->
<svg version="1.1" id="Layer_2" xmlns="http://www.w3.org/2000/svg" xmlns:xlink="http://www.w3.org/1999/xlink" x="0px" y="0px"
	 viewBox="-279 246 400 70" style="enable-background:new -279 246 400 70;" xml:space="preserve">
<style type="text/css">
	.st0{fill:#D3D3D3;}
</style>
<polygon class="st0" points="-249.8,307.8 -267.5,253.5 -277.8,286.5 "/>
<polygon class="st0" points="-212.5,305.3 -206.8,285 -222.8,272.3 -202.1,271.3 -195.8,252.3 -188.8,270.8 -167,272 -184,284.8 
	-178.5,304.5 -195.3,293 "/>
<path class="st0" d="M-136.8,272.3c0,0,16,11,16.3,13l-5.3,19.8l45.5-32.8C-80.3,272.3-133.8,271.2-136.8,272.3z"/>
<polygon class="st0" points="-53,271.8 -7.5,305.3 -14.5,284.8 3.3,271.5 "/>
<path class="st0" d="M42,252.8c0,0-17.3,51.3-16.9,52.5c0,0,16.5-12.6,17.8-10.6l16.8,11.6C59.6,306.3,43.4,253.1,42,252.8z"/>
<path class="st0" d="M91.8,252.4c0,0-10.6,30.6-10.1,32.8c0,0,10.3,9.3,27.9,21.3c0,0-8.3-21.3-4.5-22c0,0,14.3-9.9,14.1-11.1
	c0,0,2.5-1.3-20.4-0.8L91.8,252.4z"/>
</svg>
