<svg id="svg" version="1.1" width="26.6" height="40" viewBox="0 0 400 601.0928961748634" xmlns="http://www.w3.org/2000/svg" xmlns:xlink="http://www.w3.org/1999/xlink" ><g id="svgg"><path id="path0" d="M183.200 0.557 C 183.200 1.292,182.697 1.457,178.739 2.020 C 176.903 2.281,174.860 2.811,174.200 3.199 C 173.540 3.586,172.280 4.132,171.400 4.411 C 170.520 4.691,167.608 6.146,164.928 7.645 C 158.898 11.019,158.623 11.090,156.020 9.970 L 153.945 9.078 153.107 9.915 C 152.397 10.625,152.214 11.503,151.908 15.676 C 151.215 25.125,147.769 26.345,142.818 18.895 C 140.749 15.782,138.842 13.933,137.983 14.205 C 136.896 14.550,136.614 16.080,137.367 17.537 C 138.074 18.904,138.216 21.168,137.600 21.260 C 137.380 21.293,137.018 21.338,136.795 21.360 C 136.572 21.382,136.077 20.934,135.695 20.365 C 135.313 19.796,133.920 17.754,132.600 15.828 C 131.280 13.903,129.750 11.604,129.200 10.721 C 127.648 8.229,126.286 7.868,123.691 9.265 C 122.531 9.889,120.962 10.400,120.205 10.400 C 118.239 10.400,117.657 11.585,118.772 13.320 C 119.224 14.024,119.871 15.230,120.209 16.000 C 120.548 16.770,121.098 17.891,121.430 18.492 C 122.532 20.480,122.645 23.441,121.640 23.979 C 120.517 24.579,114.943 24.178,110.400 23.169 C 108.530 22.754,105.740 22.223,104.200 21.988 C 101.189 21.530,96.546 20.568,94.600 19.999 C 89.307 18.451,87.480 20.640,91.134 24.153 C 93.533 26.460,94.899 28.594,95.318 30.691 C 95.635 32.275,94.312 32.791,90.702 32.492 C 86.473 32.141,85.159 34.122,88.735 35.457 C 93.602 37.274,97.773 43.631,95.394 45.605 C 94.288 46.523,88.024 45.841,81.021 44.040 C 72.216 41.776,71.637 41.842,66.082 45.731 C 65.194 46.353,63.417 47.282,62.133 47.796 C 55.546 50.431,58.336 55.138,65.675 53.772 C 75.495 51.943,76.900 51.999,77.119 54.228 C 77.287 55.934,76.383 56.563,70.324 58.956 C 69.122 59.431,68.768 59.834,68.421 61.123 C 67.806 63.406,67.206 63.760,64.493 63.441 C 57.751 62.649,57.751 62.649,56.866 63.534 C 56.072 64.328,56.059 64.468,56.610 66.285 C 57.428 68.981,57.380 69.169,55.700 69.837 C 52.881 70.958,51.025 72.150,49.257 73.975 C 46.934 76.373,43.265 78.797,41.958 78.799 C 40.962 78.800,37.200 81.292,37.200 81.950 C 37.200 82.122,36.675 83.059,36.033 84.031 C 34.512 86.337,34.311 87.766,34.825 92.600 C 35.655 100.408,35.803 100.043,30.835 102.457 C 25.941 104.835,24.000 107.566,24.000 112.077 C 24.000 115.929,21.638 120.109,15.329 127.422 C 12.928 130.205,12.400 131.357,12.400 133.812 C 12.400 136.107,11.677 136.512,8.215 136.157 C 4.895 135.817,4.328 136.692,5.397 140.502 C 6.384 144.021,6.584 150.371,5.832 154.300 C 5.484 156.115,4.928 159.073,4.596 160.874 C 4.264 162.674,3.668 164.699,3.273 165.374 C 2.877 166.048,2.308 167.480,2.009 168.555 C 1.658 169.818,1.206 170.578,0.733 170.702 C -0.276 170.965,-0.383 176.400,0.620 176.400 C 0.962 176.400,1.522 177.073,1.866 177.897 C 2.210 178.720,2.876 179.875,3.346 180.464 C 3.816 181.053,4.650 182.302,5.200 183.239 C 5.750 184.176,6.785 185.829,7.500 186.912 C 8.662 188.671,8.800 189.184,8.800 191.740 C 8.800 195.532,9.947 197.685,14.630 202.682 C 20.900 209.373,21.139 210.060,20.207 218.678 C 19.854 221.941,21.895 226.806,24.958 230.003 C 26.139 231.236,26.147 232.679,24.984 234.664 L 23.884 236.540 24.120 244.570 C 24.258 249.256,24.603 253.738,24.950 255.332 C 25.276 256.835,25.761 261.155,26.026 264.932 C 26.431 270.683,26.667 272.145,27.476 273.920 C 28.656 276.510,28.767 279.830,27.758 282.402 C 26.866 284.676,26.868 288.333,27.763 291.200 C 29.727 297.490,28.513 308.625,25.540 311.599 C 24.891 312.247,24.112 313.638,23.808 314.689 C 23.504 315.740,23.035 317.331,22.766 318.224 C 22.158 320.237,22.485 321.635,23.949 323.273 L 25.080 324.540 26.288 323.680 C 28.699 321.963,29.307 321.933,30.912 323.446 C 32.635 325.072,36.986 332.956,36.568 333.694 C 35.693 335.238,34.586 336.000,33.219 336.000 C 30.041 336.000,29.288 337.747,31.047 341.040 C 35.056 348.547,35.688 350.398,34.638 351.558 C 33.318 353.016,31.710 352.199,29.701 349.049 C 27.353 345.365,27.489 345.486,26.292 346.031 C 24.086 347.036,24.648 348.881,28.800 354.268 C 31.579 357.873,34.359 362.274,35.201 364.400 C 35.631 365.486,38.577 369.409,40.005 370.800 C 40.667 371.444,43.606 375.270,44.614 376.800 C 45.641 378.359,45.800 378.971,45.800 381.369 C 45.800 384.469,46.999 385.884,50.400 386.800 C 53.007 387.502,55.932 391.955,58.674 399.397 C 59.774 402.381,60.914 402.574,61.409 399.860 C 61.655 398.509,60.768 392.180,60.055 390.200 C 59.817 389.540,59.527 388.550,59.411 388.000 C 59.294 387.450,57.746 385.470,55.971 383.600 C 50.369 377.700,49.357 373.510,51.137 363.588 C 53.602 349.845,53.575 345.583,50.968 337.654 C 50.436 336.034,50.000 334.540,50.000 334.333 C 50.000 334.126,49.643 333.172,49.207 332.215 C 48.590 330.861,48.329 329.015,48.036 323.936 C 47.763 319.210,47.463 316.957,46.950 315.800 C 45.910 313.453,45.874 302.034,46.900 300.039 C 47.737 298.411,47.816 295.877,47.050 295.241 C 45.353 293.833,45.241 287.541,46.842 283.510 C 47.511 281.825,47.791 279.670,48.233 272.800 C 48.538 268.070,48.982 263.400,49.219 262.422 C 49.457 261.444,49.802 258.357,49.988 255.561 C 50.642 245.705,52.467 243.113,59.313 242.319 C 61.121 242.109,63.770 241.662,65.200 241.325 C 66.630 240.988,68.970 240.577,70.400 240.412 C 72.757 240.140,76.298 238.441,76.931 237.279 C 77.350 236.509,76.278 234.514,75.006 233.696 C 74.233 233.199,73.600 232.537,73.600 232.225 C 73.600 231.913,72.970 230.449,72.200 228.972 C 71.430 227.495,70.800 226.065,70.800 225.794 C 70.800 225.225,74.185 222.000,74.782 222.000 C 76.830 222.000,76.617 218.803,74.417 216.514 C 72.674 214.700,72.413 213.531,73.426 212.085 C 74.678 210.296,73.460 209.178,69.458 208.444 C 66.603 207.920,66.185 207.351,66.825 204.855 C 67.288 203.046,67.266 202.688,66.613 201.476 C 65.547 199.496,66.005 198.212,68.112 197.280 C 69.050 196.865,70.083 196.273,70.408 195.963 C 70.925 195.471,74.844 192.732,77.891 190.733 C 78.450 190.366,80.008 189.950,81.354 189.809 C 85.913 189.329,96.000 185.612,96.000 184.411 C 96.000 183.203,99.090 183.106,101.606 184.235 L 104.121 185.363 104.760 184.430 C 107.687 180.161,108.842 180.206,113.605 184.779 C 115.472 186.572,117.950 188.944,119.111 190.051 C 121.850 192.660,123.034 193.001,125.788 191.970 L 127.908 191.177 130.054 192.323 C 131.234 192.954,133.640 194.308,135.400 195.332 C 137.160 196.356,138.729 197.195,138.886 197.197 C 139.043 197.199,140.024 197.740,141.064 198.400 C 143.404 199.884,145.471 200.018,145.953 198.717 C 146.282 197.826,146.277 197.818,141.175 191.666 C 140.749 191.152,140.400 190.432,140.400 190.066 C 140.400 189.700,139.888 188.319,139.263 186.997 C 138.420 185.215,138.052 183.687,137.841 181.086 C 137.685 179.156,137.323 176.907,137.037 176.089 C 136.751 175.270,136.299 173.070,136.032 171.200 C 135.765 169.330,135.348 166.810,135.105 165.600 C 134.224 161.204,134.247 158.262,135.171 157.427 C 136.296 156.409,136.236 154.449,135.030 152.759 C 130.547 146.480,128.228 140.021,129.866 138.376 C 130.569 137.670,134.233 137.799,135.411 138.570 C 136.789 139.473,143.196 141.530,143.433 141.146 C 143.801 140.551,143.097 138.588,142.018 137.200 C 139.510 133.973,139.281 131.263,141.186 127.358 C 141.838 126.021,142.566 124.494,142.803 123.964 C 143.041 123.434,143.770 122.100,144.425 121.000 C 145.079 119.900,145.886 118.370,146.217 117.600 C 146.548 116.830,146.999 115.930,147.219 115.600 C 147.439 115.270,148.052 114.100,148.582 113.000 C 149.111 111.900,150.182 110.100,150.962 109.000 C 153.123 105.951,155.291 102.707,156.400 100.859 C 156.950 99.943,158.075 98.277,158.900 97.157 C 159.725 96.036,160.400 94.972,160.400 94.792 C 160.400 93.830,162.903 93.949,163.958 94.960 C 166.645 97.534,168.304 95.997,167.633 91.554 C 167.355 89.709,167.030 87.343,166.912 86.296 C 166.659 84.047,168.170 75.702,169.211 73.600 C 169.593 72.830,170.283 70.857,170.745 69.216 C 172.005 64.743,172.579 64.324,177.919 63.971 C 183.056 63.632,183.967 63.243,187.116 60.038 C 189.586 57.524,191.091 56.530,191.622 57.063 C 192.360 57.804,192.154 60.657,191.258 62.107 C 190.394 63.505,189.560 71.624,189.432 79.889 C 189.352 85.088,192.667 84.757,194.470 79.387 C 195.714 75.679,197.978 73.295,201.329 72.167 C 202.389 71.809,203.350 71.274,203.464 70.978 C 203.578 70.681,204.270 70.241,205.003 69.999 C 205.736 69.757,206.545 69.307,206.800 69.000 C 207.055 68.693,207.925 68.244,208.732 68.003 C 209.539 67.762,210.920 67.228,211.800 66.815 C 217.752 64.026,220.438 62.637,220.860 62.127 C 222.657 59.962,225.600 59.950,225.600 62.108 C 225.600 63.560,229.127 62.406,232.600 59.818 C 240.361 54.034,245.986 50.956,248.063 51.356 C 252.209 52.157,253.053 52.120,254.861 51.060 C 257.513 49.506,260.470 50.423,258.741 52.263 C 254.974 56.273,257.478 58.928,262.442 56.189 C 268.757 52.705,273.867 50.437,276.000 50.171 C 277.210 50.020,278.740 49.678,279.400 49.411 C 285.267 47.037,288.121 49.468,284.175 53.478 C 282.979 54.694,282.000 55.912,282.000 56.186 C 282.000 56.459,281.552 57.167,281.004 57.758 C 279.454 59.431,278.258 62.550,278.576 64.093 C 279.368 67.937,279.341 68.129,277.631 70.856 C 274.997 75.058,276.462 77.887,279.885 75.206 C 283.463 72.405,283.473 72.400,285.714 72.400 C 289.036 72.400,289.604 74.624,287.159 78.058 C 286.741 78.644,286.400 79.252,286.400 79.409 C 286.400 79.566,285.905 80.290,285.300 81.018 C 282.464 84.432,280.358 88.489,280.654 89.970 C 280.789 90.646,280.946 91.200,281.001 91.200 C 282.050 91.200,284.428 89.412,286.584 87.003 C 288.083 85.328,290.140 83.508,291.155 82.959 C 292.170 82.409,293.720 81.522,294.600 80.986 C 299.092 78.254,302.770 80.480,300.578 84.604 C 298.674 88.185,302.209 88.027,306.230 84.351 C 308.784 82.016,310.071 84.515,307.946 87.684 C 307.426 88.460,306.163 90.342,305.139 91.866 C 304.116 93.390,302.983 94.882,302.621 95.183 C 302.259 95.483,301.323 96.825,300.541 98.164 C 299.759 99.504,298.504 101.354,297.752 102.276 C 295.566 104.958,294.302 107.998,294.960 108.992 C 295.966 110.509,296.676 110.159,299.015 106.997 C 301.663 103.417,306.811 98.134,309.217 96.528 C 310.147 95.908,311.378 95.086,311.954 94.702 C 313.375 93.754,316.434 93.775,317.627 94.741 L 318.542 95.482 317.609 97.977 C 317.096 99.349,316.291 101.040,315.820 101.736 C 314.028 104.384,312.365 108.476,312.845 109.054 C 313.559 109.915,313.822 109.781,317.851 106.500 C 325.209 100.509,326.000 100.155,326.000 102.856 C 326.000 103.916,325.497 104.637,323.100 107.018 C 317.796 112.286,317.574 112.582,316.319 116.057 C 315.476 118.390,315.021 120.567,314.810 123.265 C 314.595 126.020,314.278 127.513,313.703 128.465 C 313.260 129.199,312.671 130.790,312.394 132.000 C 311.685 135.093,309.821 138.649,307.652 141.046 C 305.676 143.228,304.593 144.538,302.867 146.836 C 300.239 150.336,298.076 152.400,297.039 152.400 C 296.012 152.400,295.678 151.730,296.330 150.980 C 296.665 150.596,297.362 148.352,297.798 146.260 C 297.929 145.633,298.414 144.608,298.876 143.982 C 299.543 143.080,299.726 142.223,299.759 139.838 C 299.857 132.667,295.994 135.385,292.745 144.772 C 292.332 145.967,291.746 147.227,291.443 147.572 C 290.684 148.439,288.400 153.768,288.400 154.673 C 288.400 155.079,288.039 156.085,287.598 156.908 C 287.157 157.731,286.634 159.546,286.437 160.942 C 286.239 162.338,285.706 164.209,285.251 165.099 C 284.725 166.132,284.328 167.928,284.155 170.059 C 283.826 174.126,283.541 174.958,282.169 175.857 C 280.060 177.239,279.148 173.238,280.824 169.954 C 281.315 168.991,281.812 166.862,282.056 164.680 C 282.280 162.667,282.720 160.409,283.032 159.661 C 283.991 157.367,283.788 155.652,282.500 155.159 C 280.050 154.221,278.751 157.825,277.600 168.756 C 276.569 178.548,275.720 180.406,271.458 182.205 C 269.443 183.056,269.206 179.075,270.658 168.800 C 270.984 166.490,271.407 162.704,271.597 160.387 C 271.788 158.070,272.316 154.751,272.772 153.011 C 273.227 151.272,273.600 148.876,273.600 147.686 C 273.600 146.090,273.834 145.195,274.492 144.271 C 275.770 142.475,276.015 138.100,274.894 137.085 C 273.712 136.015,273.203 137.118,271.427 144.600 C 270.591 148.120,269.679 151.630,269.401 152.400 C 269.123 153.170,268.769 154.790,268.614 156.000 C 268.459 157.210,268.074 159.231,267.758 160.491 C 266.527 165.396,266.371 167.354,266.385 177.798 C 266.404 191.834,266.128 193.222,264.122 189.172 C 262.109 185.109,261.385 171.214,262.716 162.200 C 263.171 159.120,263.745 154.890,263.993 152.800 C 264.521 148.332,266.136 142.665,268.879 135.653 C 269.965 132.874,271.574 128.737,272.452 126.460 C 273.785 123.006,278.002 114.699,278.778 114.000 C 280.044 112.859,281.600 110.239,281.600 109.247 C 281.600 106.325,278.666 107.428,276.040 111.337 C 271.569 117.994,270.289 119.843,269.628 120.600 C 269.244 121.040,268.703 121.973,268.427 122.674 C 267.501 125.020,262.800 124.649,262.800 122.230 C 262.800 121.932,262.461 121.270,262.046 120.757 C 260.890 119.330,260.000 120.300,260.000 122.989 C 260.000 125.799,259.345 127.505,257.997 128.202 C 255.659 129.411,255.765 131.032,255.604 91.576 C 255.589 87.797,252.397 89.508,252.166 93.419 C 252.089 94.729,251.825 98.140,251.580 101.000 C 250.658 111.750,250.455 115.142,250.428 120.246 C 250.403 124.998,250.318 125.601,249.526 126.646 C 249.045 127.281,248.594 127.876,248.524 127.968 C 248.233 128.354,246.394 126.188,246.039 125.041 C 245.828 124.359,245.542 121.370,245.404 118.400 C 244.903 107.575,242.795 101.033,240.536 103.292 C 239.795 104.034,240.406 112.944,241.491 117.200 C 242.407 120.793,242.411 129.795,241.498 131.209 C 241.146 131.754,240.652 133.370,240.400 134.800 C 239.238 141.393,236.372 142.303,234.101 136.800 C 233.402 135.105,230.867 131.195,230.479 131.213 C 228.438 131.306,228.467 136.254,230.559 145.001 C 231.215 147.745,231.603 150.883,231.793 155.000 C 232.085 161.302,232.064 161.217,234.813 166.976 C 236.154 169.784,235.911 170.976,234.084 170.562 C 231.371 169.947,227.617 164.224,218.340 146.558 C 216.907 143.831,215.008 138.770,214.377 136.000 C 213.903 133.918,211.605 127.455,211.190 127.035 C 210.506 126.342,209.933 128.979,210.073 132.169 C 210.163 134.220,210.386 135.395,210.706 135.502 C 211.009 135.603,211.190 136.389,211.175 137.533 L 211.151 139.400 210.543 137.581 C 210.186 136.512,209.586 135.605,209.090 135.381 C 208.451 135.093,208.077 134.270,207.555 132.000 C 205.432 122.765,203.221 118.924,200.976 120.569 C 199.762 121.459,199.867 130.831,201.147 135.735 C 202.005 139.025,202.029 139.399,201.482 141.135 C 200.431 144.469,200.373 145.183,200.977 147.307 C 201.328 148.539,201.549 150.816,201.515 152.842 C 201.461 155.990,201.556 156.451,202.628 158.242 C 205.127 162.417,205.495 164.954,203.700 165.640 C 202.519 166.092,201.422 166.017,196.913 165.179 C 193.648 164.571,193.592 164.588,193.883 166.104 C 194.073 167.097,202.839 174.673,206.800 177.268 C 207.350 177.629,208.700 178.757,209.800 179.775 C 210.900 180.793,212.739 182.256,213.887 183.026 C 215.035 183.796,216.115 184.652,216.287 184.927 C 216.459 185.203,217.680 186.126,219.000 186.977 C 229.089 193.488,222.005 193.331,211.200 186.805 C 210.870 186.606,209.520 185.927,208.200 185.298 C 204.886 183.717,194.904 178.468,193.200 177.411 C 192.430 176.933,191.530 176.417,191.200 176.264 C 190.870 176.112,189.854 175.495,188.943 174.894 C 182.060 170.352,179.595 169.408,177.205 170.398 C 175.231 171.215,175.771 171.850,180.496 174.267 C 186.396 177.285,189.021 179.798,187.888 181.347 C 187.261 182.205,182.482 180.147,179.419 177.700 C 178.799 177.205,178.101 176.800,177.868 176.800 C 177.634 176.800,176.771 176.334,175.949 175.765 C 174.179 174.538,170.017 173.956,169.007 174.794 C 167.499 176.046,168.078 176.640,175.800 181.760 C 177.120 182.635,178.773 183.842,179.474 184.441 C 180.174 185.039,181.164 185.655,181.674 185.809 C 182.183 185.962,182.960 186.430,183.400 186.848 C 183.840 187.266,184.599 187.921,185.088 188.304 C 185.872 188.919,185.910 189.086,185.416 189.738 C 184.878 190.448,184.714 190.427,181.128 189.187 C 177.081 187.788,166.508 183.343,165.702 182.702 C 165.019 182.158,163.200 183.383,163.200 184.387 C 163.200 184.816,163.729 185.467,164.400 185.864 C 165.060 186.254,165.600 186.704,165.600 186.866 C 165.600 187.027,166.731 187.699,168.113 188.359 C 169.496 189.018,171.341 190.043,172.213 190.636 C 173.086 191.228,174.520 192.039,175.400 192.438 C 176.280 192.836,177.450 193.436,178.000 193.770 C 178.550 194.105,179.810 194.743,180.800 195.190 C 187.192 198.071,184.217 200.629,177.400 198.113 C 176.520 197.789,174.450 197.206,172.800 196.818 C 171.150 196.430,168.939 195.818,167.886 195.457 C 161.963 193.425,158.956 196.686,164.639 198.978 C 165.761 199.430,167.391 200.295,168.261 200.900 C 169.131 201.505,169.994 202.000,170.180 202.000 C 170.745 202.000,179.391 206.488,179.533 206.856 C 179.607 207.045,179.877 207.205,180.133 207.210 C 180.390 207.216,182.038 207.936,183.796 208.810 C 185.553 209.685,187.190 210.400,187.434 210.400 C 187.677 210.400,188.202 210.760,188.600 211.200 C 188.998 211.640,189.504 212.000,189.724 212.000 C 189.944 212.000,190.702 212.440,191.408 212.979 C 192.113 213.517,193.210 214.078,193.845 214.226 C 194.480 214.374,195.397 214.743,195.883 215.045 C 197.207 215.871,204.744 218.334,206.800 218.614 C 207.790 218.748,209.230 219.096,210.000 219.386 C 210.770 219.677,212.660 220.132,214.200 220.399 C 219.659 221.343,220.295 221.581,220.832 222.876 C 221.241 223.865,221.229 224.136,220.764 224.431 C 220.010 224.908,213.456 224.866,211.200 224.369 C 207.363 223.523,203.269 222.862,200.237 222.596 C 198.497 222.444,196.350 222.065,195.465 221.752 C 194.581 221.440,192.584 220.988,191.029 220.747 C 189.473 220.506,187.370 219.981,186.355 219.582 C 185.341 219.182,183.361 218.647,181.955 218.393 C 180.550 218.138,179.220 217.782,179.000 217.602 C 176.762 215.768,174.524 218.386,176.175 220.906 C 176.693 221.697,176.709 221.971,176.271 222.570 C 175.614 223.469,164.833 222.874,162.726 221.823 C 162.061 221.492,160.411 221.023,159.059 220.781 C 157.706 220.540,156.240 220.111,155.800 219.828 C 153.465 218.327,148.381 217.584,147.100 218.557 C 146.033 219.367,146.248 219.906,147.992 220.796 C 149.814 221.725,151.037 223.603,150.300 224.340 C 149.569 225.071,146.713 224.875,144.985 223.975 C 144.113 223.522,142.349 222.975,141.064 222.761 C 139.779 222.546,138.287 222.082,137.748 221.729 C 137.210 221.376,135.831 220.853,134.685 220.566 C 132.174 219.938,126.095 217.768,125.457 217.271 C 124.584 216.592,123.233 216.478,122.763 217.045 C 121.912 218.070,122.569 221.288,123.814 222.200 C 124.415 222.640,125.631 223.688,126.516 224.528 C 128.449 226.365,132.072 228.813,134.000 229.585 C 138.595 231.424,141.255 233.718,142.025 236.505 C 142.480 238.153,143.136 238.486,147.723 239.396 C 150.472 239.942,151.584 240.000,152.897 239.667 C 157.929 238.389,154.754 244.592,148.209 248.824 C 145.624 250.496,137.600 259.441,137.600 260.651 C 137.600 260.785,137.105 261.487,136.500 262.212 C 135.365 263.571,134.977 264.120,131.562 269.200 C 125.504 278.212,124.268 279.994,122.656 282.041 C 121.685 283.274,120.661 284.714,120.381 285.241 C 120.100 285.769,119.135 287.186,118.235 288.390 C 117.336 289.595,116.240 291.266,115.800 292.103 C 114.912 293.793,112.599 297.279,107.800 304.159 C 103.386 310.488,101.462 313.334,99.390 316.600 C 98.413 318.140,97.420 319.629,97.183 319.909 C 96.946 320.189,96.495 321.032,96.182 321.782 C 95.869 322.532,95.448 323.247,95.246 323.371 C 94.775 323.663,90.676 332.111,89.997 334.190 C 89.712 335.065,89.146 336.325,88.741 336.990 C 88.335 337.656,88.002 338.502,88.001 338.871 C 88.001 339.240,87.389 340.714,86.643 342.146 C 85.896 343.579,84.957 345.617,84.557 346.675 C 84.156 347.734,83.237 349.652,82.514 350.938 C 81.791 352.225,81.200 353.373,81.200 353.491 C 81.200 353.609,80.797 354.357,80.304 355.153 C 78.594 357.915,76.749 362.614,76.365 365.184 C 76.153 366.606,75.644 368.338,75.234 369.033 C 74.823 369.728,74.359 371.061,74.201 371.995 C 74.043 372.929,73.591 374.437,73.197 375.346 C 72.802 376.256,72.350 377.810,72.192 378.800 C 72.034 379.790,71.553 381.293,71.123 382.140 C 70.694 382.988,70.167 384.773,69.952 386.109 C 69.716 387.574,68.934 389.706,67.980 391.485 C 67.111 393.106,66.400 394.894,66.400 395.457 C 66.400 396.021,65.836 398.129,65.147 400.141 C 63.278 405.601,63.181 408.987,64.729 414.732 C 66.635 421.804,67.007 421.903,73.523 417.092 C 76.417 414.954,79.383 413.175,81.902 412.065 C 84.046 411.121,86.430 410.024,87.200 409.628 C 87.970 409.232,89.430 408.786,90.444 408.638 C 91.458 408.489,92.888 407.925,93.622 407.384 C 94.355 406.843,95.344 406.400,95.818 406.400 C 96.293 406.400,97.527 405.950,98.562 405.400 C 99.596 404.850,100.665 404.400,100.937 404.400 C 101.208 404.400,102.127 404.045,102.977 403.612 C 103.828 403.178,105.368 402.543,106.400 402.200 C 107.432 401.857,108.972 401.222,109.823 400.788 C 110.673 400.355,111.618 400.000,111.923 400.000 C 112.227 400.000,112.954 399.662,113.538 399.250 C 114.122 398.837,115.202 398.369,115.938 398.210 C 119.125 397.519,123.180 395.270,123.878 393.805 C 124.819 391.833,124.192 391.228,122.113 392.104 C 121.281 392.455,120.110 392.847,119.510 392.976 C 118.911 393.105,117.761 393.658,116.955 394.205 C 116.148 394.752,115.198 395.202,114.844 395.204 C 114.490 395.206,113.237 395.656,112.060 396.204 C 110.883 396.752,109.571 397.200,109.144 397.200 C 108.717 397.200,107.662 397.560,106.800 398.000 C 105.938 398.440,104.945 398.800,104.594 398.800 C 104.243 398.800,103.139 399.172,102.141 399.627 C 101.142 400.082,99.397 400.610,98.263 400.800 C 92.613 401.746,88.321 403.239,82.379 406.325 C 80.300 407.404,78.153 408.428,77.608 408.600 C 77.062 408.772,76.122 409.277,75.519 409.723 C 74.333 410.600,72.238 410.798,71.539 410.099 C 71.056 409.616,72.137 405.473,73.026 404.400 C 73.913 403.330,75.919 399.048,76.398 397.200 C 77.089 394.538,81.238 386.392,82.849 384.537 C 85.207 381.820,87.556 375.539,87.612 371.800 C 87.625 370.920,87.858 369.681,88.128 369.048 L 88.620 367.895 90.267 369.448 C 94.166 373.124,95.055 376.480,93.010 379.800 C 90.627 383.670,92.377 386.400,97.244 386.400 C 100.214 386.400,101.677 386.853,104.156 388.541 C 106.449 390.102,109.670 389.774,110.930 387.850 C 112.001 386.216,114.586 385.361,116.530 385.998 C 118.975 386.799,123.223 386.739,124.526 385.885 C 125.108 385.504,126.776 384.916,128.234 384.578 C 129.692 384.239,131.271 383.723,131.742 383.429 C 132.214 383.135,133.140 382.773,133.800 382.623 C 135.103 382.327,138.850 380.659,142.503 378.748 C 143.769 378.085,145.839 376.547,147.103 375.331 C 148.366 374.114,150.390 372.638,151.600 372.050 C 157.657 369.107,149.143 367.726,136.400 369.585 C 133.430 370.018,129.020 370.658,126.600 371.007 C 124.180 371.355,120.940 371.992,119.400 372.421 C 110.994 374.767,100.037 370.980,92.434 363.104 C 89.668 360.238,89.142 358.411,90.614 356.785 C 90.963 356.399,91.947 354.717,92.801 353.047 C 96.137 346.525,99.953 343.181,106.083 341.412 C 111.118 339.959,110.875 342.356,105.711 345.073 C 103.424 346.277,98.800 350.123,98.800 350.821 C 98.800 352.685,101.241 352.828,103.462 351.096 C 105.199 349.742,106.217 349.128,110.207 347.025 C 116.314 343.806,127.796 344.517,135.963 348.619 C 137.037 349.159,138.160 349.600,138.458 349.600 C 138.756 349.600,140.123 350.132,141.496 350.781 C 142.869 351.431,144.669 352.085,145.496 352.235 C 146.323 352.384,147.504 352.762,148.119 353.074 C 148.735 353.385,150.795 353.817,152.698 354.033 C 157.818 354.615,160.724 356.668,161.996 360.600 C 162.281 361.480,162.758 362.555,163.057 362.989 C 163.419 363.515,163.600 365.017,163.600 367.489 C 163.600 371.961,163.194 372.571,159.944 372.988 C 157.819 373.260,157.079 373.648,151.465 377.428 C 150.181 378.293,148.175 379.540,147.008 380.200 C 145.841 380.860,143.942 381.940,142.789 382.600 C 141.636 383.260,140.132 384.100,139.446 384.466 C 137.384 385.569,132.981 390.514,131.620 393.256 C 129.402 397.727,124.832 404.223,120.337 409.295 C 119.219 410.558,118.010 412.105,117.652 412.733 C 116.110 415.434,115.302 416.645,113.713 418.640 C 112.785 419.804,111.904 421.261,111.755 421.878 C 111.431 423.220,108.564 429.051,108.083 429.349 C 107.461 429.733,102.400 443.533,102.400 444.844 C 102.400 445.274,102.038 446.699,101.596 448.011 C 101.154 449.324,100.606 451.793,100.379 453.499 C 100.152 455.204,99.698 457.410,99.370 458.400 C 99.042 459.390,98.495 462.713,98.155 465.785 C 97.815 468.857,97.361 471.699,97.146 472.101 C 96.931 472.503,96.579 474.939,96.365 477.516 C 96.150 480.092,95.634 483.640,95.217 485.400 C 94.800 487.160,94.551 489.140,94.663 489.800 C 94.928 491.355,96.838 496.050,97.475 496.713 C 98.217 497.484,98.915 506.230,98.984 515.618 C 99.004 518.321,97.791 520.706,97.035 519.449 C 96.796 519.052,96.031 517.829,95.335 516.732 C 94.640 515.635,93.957 514.283,93.818 513.728 C 93.679 513.174,93.213 512.198,92.782 511.560 C 92.352 510.922,91.654 509.886,91.231 509.258 C 90.808 508.630,90.250 507.330,89.992 506.369 C 89.733 505.408,89.191 503.987,88.788 503.211 C 88.065 501.822,86.037 495.523,85.178 492.000 C 84.937 491.010,84.505 489.480,84.219 488.600 C 83.932 487.720,83.572 485.952,83.417 484.671 C 83.262 483.391,82.794 481.591,82.376 480.671 C 81.959 479.752,81.614 478.239,81.609 477.308 C 81.604 476.378,81.256 474.488,80.835 473.108 C 79.380 468.337,76.351 448.008,76.200 442.000 C 76.050 436.049,74.900 434.187,71.912 435.062 L 70.600 435.446 70.711 438.223 C 70.772 439.750,71.073 442.620,71.381 444.600 C 71.689 446.580,72.058 451.170,72.201 454.800 C 72.344 458.430,72.738 463.200,73.077 465.400 C 73.863 470.500,73.861 479.272,73.073 481.200 C 72.759 481.970,72.376 483.770,72.224 485.200 C 72.071 486.630,71.605 488.520,71.189 489.400 C 70.773 490.280,70.240 492.326,70.005 493.947 C 69.770 495.567,69.397 497.232,69.176 497.645 C 68.954 498.059,67.892 501.053,66.814 504.299 C 64.409 511.542,63.501 513.735,60.475 519.600 C 54.849 530.504,53.199 533.413,49.246 539.394 C 47.340 542.280,46.921 542.850,45.163 544.957 C 43.622 546.804,42.000 549.755,42.000 550.712 C 42.000 552.719,44.442 555.466,45.772 554.955 C 46.917 554.516,48.384 555.193,50.563 557.167 C 52.209 558.657,53.208 559.221,54.812 559.565 C 72.332 563.323,81.776 560.522,91.800 548.596 C 96.400 543.123,101.515 538.008,102.911 537.485 C 104.933 536.727,107.992 539.407,112.400 545.798 C 112.950 546.595,114.535 548.632,115.923 550.324 C 117.310 552.016,119.020 554.104,119.723 554.965 C 120.425 555.825,121.810 557.385,122.800 558.431 C 123.790 559.477,125.410 561.284,126.400 562.445 C 127.390 563.607,128.920 565.347,129.800 566.313 C 132.505 569.281,136.877 574.653,137.474 575.743 C 141.127 582.418,157.214 595.230,163.671 596.607 C 164.402 596.763,165.900 597.300,167.000 597.801 C 168.573 598.517,170.347 598.819,175.310 599.214 C 181.823 599.732,183.376 599.670,193.200 598.498 C 197.341 598.004,202.089 597.805,209.800 597.801 C 215.740 597.799,221.590 597.655,222.800 597.482 C 228.929 596.606,230.701 596.253,231.800 595.690 C 232.460 595.352,233.854 594.850,234.899 594.574 C 240.724 593.037,246.972 587.476,258.912 573.200 C 261.028 570.670,263.365 567.880,264.105 567.000 C 264.845 566.120,266.339 564.230,267.425 562.800 C 268.511 561.370,269.715 559.965,270.100 559.677 C 270.485 559.390,270.800 558.974,270.800 558.753 C 270.800 558.532,272.082 556.877,273.648 555.076 C 275.214 553.274,276.954 551.080,277.514 550.200 C 278.073 549.320,278.737 548.420,278.988 548.200 C 279.239 547.980,280.335 546.475,281.423 544.857 C 282.510 543.238,283.760 541.423,284.200 540.823 C 286.268 538.006,292.171 529.342,294.277 526.034 C 295.200 524.585,296.291 523.040,296.702 522.600 C 297.113 522.160,298.510 520.180,299.807 518.200 C 301.103 516.220,302.913 513.700,303.830 512.600 C 304.747 511.500,305.814 509.970,306.202 509.200 C 307.260 507.095,309.752 504.800,310.978 504.800 C 312.667 504.800,312.907 506.122,312.612 513.800 C 312.468 517.540,312.283 522.977,312.200 525.882 C 312.117 528.788,311.870 532.568,311.651 534.282 C 309.361 552.242,309.551 565.836,312.167 571.200 C 314.703 576.400,317.732 580.167,324.812 586.927 C 329.942 591.826,331.082 592.577,332.539 592.023 C 334.105 591.428,334.097 590.966,332.499 589.603 C 324.166 582.499,319.451 576.781,319.678 574.056 L 319.800 572.600 324.324 572.737 C 328.624 572.868,328.925 572.824,330.396 571.850 C 331.815 570.911,334.400 567.725,334.400 566.914 C 334.400 566.543,338.426 561.679,341.104 558.815 C 342.022 557.833,342.970 556.483,343.210 555.815 C 345.388 549.744,346.145 549.129,351.910 548.749 C 362.696 548.038,366.063 545.526,360.937 542.013 C 358.311 540.213,357.794 538.137,359.190 535.000 C 359.582 534.120,360.028 532.500,360.182 531.400 C 360.538 528.860,361.336 527.600,362.590 527.600 C 366.352 527.600,366.627 525.617,364.197 516.000 C 363.669 513.910,363.123 511.480,362.984 510.600 C 362.845 509.720,362.278 506.660,361.723 503.800 C 360.256 496.238,360.334 495.231,362.597 492.583 C 364.714 490.105,364.690 489.337,362.356 484.713 C 360.519 481.074,359.762 477.379,358.401 465.400 C 358.151 463.200,357.677 459.600,357.347 457.400 C 356.299 450.412,355.598 441.674,355.341 432.400 C 355.083 423.107,354.742 421.200,353.336 421.200 C 352.459 421.200,347.263 423.879,345.869 425.050 C 345.247 425.572,344.518 426.000,344.248 426.000 C 343.978 426.000,342.954 426.509,341.974 427.131 C 333.750 432.346,323.128 428.775,326.610 421.965 C 327.594 420.040,329.976 416.385,331.018 415.200 C 332.219 413.834,332.515 412.275,331.938 410.352 C 331.160 407.753,333.874 399.056,335.908 397.629 C 337.983 396.175,338.052 392.800,336.007 392.800 C 335.194 392.800,331.694 396.520,329.745 399.457 C 327.543 402.773,324.391 409.514,323.599 412.600 C 320.657 424.059,320.195 428.893,320.763 442.270 C 321.204 452.653,320.842 461.457,319.795 465.800 C 319.476 467.120,319.023 469.460,318.787 471.000 C 318.196 474.867,314.886 485.021,313.754 486.440 C 313.508 486.748,312.738 488.207,312.041 489.683 C 311.345 491.159,309.369 494.489,307.651 497.083 C 305.932 499.677,304.289 502.250,304.001 502.800 C 303.712 503.350,302.909 504.467,302.216 505.281 C 301.522 506.096,300.697 507.266,300.383 507.881 C 299.200 510.191,295.336 515.932,291.422 521.193 C 289.870 523.279,288.060 525.801,287.400 526.797 C 286.740 527.793,285.390 529.659,284.400 530.943 C 283.410 532.228,282.240 533.856,281.800 534.561 C 280.440 536.740,275.874 543.188,274.400 545.009 C 273.630 545.961,272.550 547.394,272.000 548.194 C 269.866 551.297,263.655 559.121,257.605 566.327 C 252.462 572.453,243.174 581.798,238.728 585.319 C 233.160 589.730,232.587 590.119,229.600 591.529 C 225.679 593.380,224.534 593.539,212.000 593.974 C 206.170 594.177,197.340 594.552,192.378 594.808 C 181.283 595.381,177.511 594.878,166.925 591.418 C 163.194 590.198,159.884 589.200,159.570 589.200 C 158.997 589.200,155.551 586.851,151.544 583.730 C 148.460 581.328,136.376 568.931,135.371 567.139 C 135.167 566.775,134.190 565.570,133.200 564.462 C 132.210 563.354,130.770 561.600,130.000 560.564 C 129.230 559.528,128.039 558.033,127.354 557.240 C 126.270 555.987,123.726 552.840,119.400 547.401 C 118.740 546.571,118.038 545.601,117.839 545.246 C 117.641 544.891,116.741 543.781,115.839 542.780 C 113.653 540.353,112.487 538.957,110.844 536.800 C 110.089 535.810,108.678 534.112,107.708 533.026 C 103.450 528.260,102.034 525.115,102.711 521.927 C 102.960 520.757,103.355 518.540,103.589 517.000 C 103.824 515.460,104.288 512.760,104.622 511.000 C 104.955 509.240,105.380 506.360,105.566 504.600 C 105.752 502.840,106.118 500.863,106.378 500.206 C 106.639 499.549,107.102 497.929,107.408 496.606 C 109.286 488.485,112.494 482.319,119.169 474.000 C 122.120 470.322,127.281 464.165,129.395 461.800 C 133.623 457.069,135.299 455.115,137.979 451.795 C 139.398 450.038,141.235 447.880,142.062 447.000 C 142.889 446.120,143.979 444.816,144.483 444.101 C 145.785 442.258,148.609 438.662,151.304 435.417 C 152.575 433.886,154.629 431.141,155.868 429.317 C 157.107 427.492,158.246 426.000,158.399 426.000 C 158.552 426.000,159.470 424.744,160.439 423.209 C 161.407 421.673,162.885 419.483,163.722 418.340 C 165.137 416.407,172.800 401.414,172.800 400.576 C 172.800 400.369,173.700 398.795,174.800 397.079 C 175.900 395.362,176.800 393.826,176.800 393.665 C 176.800 393.504,177.385 392.439,178.100 391.297 C 178.815 390.156,179.850 388.474,180.400 387.561 C 182.466 384.129,184.022 381.731,185.620 379.516 C 186.526 378.260,188.080 375.650,189.074 373.716 C 191.108 369.757,190.745 370.240,195.313 365.400 C 197.181 363.420,199.796 360.540,201.124 359.000 C 205.766 353.614,210.179 349.335,214.305 346.218 C 215.457 345.348,216.400 344.523,216.400 344.385 C 216.400 344.247,217.293 343.556,218.384 342.849 C 219.475 342.142,221.074 340.987,221.938 340.282 C 222.801 339.577,224.023 338.687,224.654 338.306 C 225.284 337.924,226.790 336.889,228.000 336.006 C 229.210 335.124,230.346 334.401,230.523 334.401 C 230.910 334.400,234.141 331.933,234.337 331.489 C 234.412 331.318,235.180 330.818,236.043 330.378 C 236.906 329.938,239.148 328.458,241.026 327.089 C 244.444 324.596,247.515 322.603,249.841 321.368 C 251.026 320.738,252.400 318.956,252.400 318.049 C 252.400 316.373,246.715 316.018,244.721 317.568 C 244.214 317.962,243.080 318.513,242.200 318.792 C 241.320 319.072,240.328 319.537,239.996 319.826 C 239.664 320.114,236.964 321.562,233.996 323.043 C 231.028 324.523,228.150 326.041,227.600 326.415 C 227.050 326.789,226.150 327.231,225.600 327.398 C 225.050 327.564,222.710 328.738,220.400 330.006 C 218.090 331.274,214.850 333.018,213.200 333.882 C 209.584 335.775,207.416 336.983,204.093 338.958 C 202.713 339.777,201.003 340.713,200.293 341.038 C 199.582 341.362,198.010 342.245,196.800 343.000 C 195.590 343.755,193.140 345.095,191.356 345.978 C 189.571 346.861,187.876 347.868,187.588 348.215 C 186.049 350.068,182.679 350.488,182.087 348.900 C 180.785 345.411,180.671 344.089,181.552 342.718 C 182.018 341.993,182.714 340.885,183.100 340.256 C 183.765 339.169,187.447 334.143,189.148 332.000 C 189.585 331.450,191.473 329.069,193.345 326.710 C 196.436 322.812,206.210 311.832,211.959 305.800 C 213.216 304.480,214.933 302.590,215.774 301.600 C 218.444 298.455,233.470 282.964,243.000 273.532 C 248.060 268.523,254.450 262.199,257.200 259.476 C 259.950 256.754,265.009 251.573,268.443 247.963 C 273.807 242.324,276.042 239.886,280.800 234.482 C 282.287 232.793,284.038 228.317,284.377 225.341 C 284.965 220.174,285.832 220.190,291.207 225.466 C 295.772 229.948,297.869 233.591,301.299 243.000 C 301.539 243.660,302.149 244.830,302.653 245.600 C 304.212 247.982,304.878 250.382,304.606 252.632 C 304.452 253.900,304.593 255.704,304.982 257.432 C 305.324 258.954,305.759 261.759,305.949 263.663 C 306.138 265.568,306.700 268.178,307.197 269.463 C 307.695 270.749,308.619 273.101,309.251 274.691 C 309.883 276.281,310.400 277.922,310.400 278.337 C 310.400 278.752,310.734 279.521,311.142 280.046 C 311.550 280.571,312.009 281.720,312.162 282.600 C 312.315 283.480,313.286 285.900,314.320 287.977 L 316.199 291.753 316.565 300.577 C 317.220 316.339,317.122 320.279,316.018 322.600 C 315.258 324.197,315.053 325.325,315.002 328.200 C 314.884 334.842,312.094 336.483,306.905 332.961 C 304.092 331.052,300.610 329.673,297.400 329.195 C 295.640 328.934,293.121 328.283,291.803 327.748 C 289.559 326.839,289.374 326.821,288.903 327.465 C 287.957 328.759,288.416 329.408,294.660 335.600 C 298.098 339.010,301.330 342.430,301.841 343.200 C 302.353 343.970,303.333 345.394,304.020 346.365 C 304.708 347.336,305.659 348.896,306.135 349.832 C 308.948 355.363,310.400 358.445,310.404 358.892 C 310.406 359.171,310.826 360.300,311.337 361.400 C 311.849 362.500,312.383 364.250,312.524 365.288 C 312.802 367.326,314.801 372.106,315.575 372.585 C 317.636 373.859,319.520 367.289,318.599 362.037 C 317.146 353.748,317.333 353.174,322.065 351.391 C 323.679 350.782,326.170 349.689,327.600 348.963 C 330.138 347.672,330.290 347.646,334.000 347.864 C 337.031 348.041,338.164 347.947,339.600 347.397 C 344.637 345.468,345.106 345.895,345.364 352.658 C 345.527 356.946,346.312 361.054,347.187 362.200 C 349.020 364.602,349.696 371.217,348.608 376.108 C 348.249 377.720,348.010 380.111,348.078 381.420 L 348.200 383.800 349.526 383.738 C 350.256 383.704,351.156 383.411,351.526 383.087 C 358.741 376.774,369.567 382.669,366.202 391.079 C 365.243 393.474,365.498 394.571,367.049 394.722 C 368.686 394.881,372.907 390.415,373.780 387.600 C 374.087 386.610,374.712 385.087,375.169 384.215 C 375.626 383.344,376.000 382.156,376.000 381.575 C 376.000 380.994,376.429 379.712,376.954 378.725 C 377.478 377.739,378.036 376.170,378.193 375.239 C 378.351 374.308,378.822 372.573,379.240 371.383 C 381.293 365.542,378.928 359.274,373.668 356.619 C 372.508 356.033,371.200 354.057,371.200 352.888 C 371.200 351.445,372.768 350.867,375.060 351.466 C 378.369 352.330,379.288 353.256,381.451 357.900 L 383.360 362.000 384.911 362.000 L 386.461 362.000 386.281 358.900 C 386.117 356.070,385.587 351.580,384.994 347.992 C 384.748 346.505,382.721 344.102,379.666 341.677 C 378.418 340.686,378.000 340.072,378.000 339.226 C 378.000 337.679,378.975 336.886,379.908 337.676 C 386.213 343.016,391.082 337.714,385.419 331.673 C 383.045 329.139,378.888 327.781,375.511 328.434 C 369.121 329.670,366.860 326.572,371.941 323.545 C 372.744 323.067,374.210 322.013,375.200 321.203 C 378.251 318.705,380.042 318.227,382.646 319.217 C 383.565 319.567,383.877 319.500,384.572 318.800 L 385.400 317.965 383.028 315.683 C 378.748 311.565,377.085 299.382,379.359 288.816 C 380.556 283.253,380.444 279.438,379.000 276.577 C 377.844 274.286,377.806 274.040,377.954 269.800 C 378.276 260.566,378.258 260.312,377.190 258.593 C 375.950 256.598,375.802 252.047,376.884 249.200 C 377.261 248.210,377.759 245.160,377.991 242.422 C 378.224 239.684,378.756 236.084,379.174 234.422 C 379.592 232.760,380.110 230.500,380.325 229.400 C 381.141 225.231,383.167 216.151,383.537 215.000 C 383.750 214.340,384.230 212.450,384.605 210.800 C 385.215 208.118,386.003 206.006,387.813 202.200 C 390.900 195.708,391.454 193.205,390.807 188.650 C 390.401 185.793,390.423 184.596,390.940 181.318 C 391.280 179.163,391.668 176.549,391.802 175.509 C 391.936 174.469,392.203 173.522,392.394 173.404 C 392.585 173.286,393.324 171.397,394.037 169.207 L 395.333 165.225 394.580 163.513 C 394.166 162.571,392.641 160.540,391.192 159.000 C 386.756 154.285,387.040 152.420,392.200 152.392 C 396.511 152.368,400.000 150.986,400.000 149.302 C 400.000 148.479,399.802 148.000,399.463 148.000 C 399.168 148.000,398.606 147.415,398.215 146.700 C 396.842 144.189,393.517 142.113,390.363 141.796 C 386.938 141.452,385.602 140.153,385.597 137.162 C 385.594 135.131,384.301 127.297,383.561 124.826 C 383.210 123.656,382.390 122.540,380.840 121.123 C 378.354 118.851,376.000 115.469,376.000 114.168 C 376.000 113.696,375.466 112.610,374.814 111.755 C 374.161 110.900,373.036 109.425,372.314 108.479 C 371.591 107.532,370.235 106.125,369.300 105.352 C 368.365 104.579,367.600 103.713,367.600 103.427 C 367.600 103.142,367.221 102.426,366.757 101.836 C 365.542 100.291,363.693 96.333,363.150 94.111 C 362.376 90.948,360.863 88.843,355.596 83.600 C 351.045 79.070,347.600 74.452,347.600 72.883 C 347.600 70.951,343.691 66.701,337.600 62.008 C 328.898 55.305,327.461 53.437,326.000 46.932 C 325.432 44.403,323.719 43.074,320.479 42.646 C 317.142 42.207,315.926 41.430,314.596 38.889 C 312.689 35.247,305.687 28.479,303.509 28.171 C 300.966 27.812,295.781 26.058,294.663 25.178 C 292.392 23.392,289.979 22.708,286.902 22.978 C 283.399 23.286,281.774 22.809,277.124 20.107 L 273.853 18.206 269.026 18.101 C 266.188 18.039,263.458 17.756,262.400 17.414 C 261.410 17.094,258.800 16.363,256.600 15.790 C 254.400 15.216,251.610 14.404,250.400 13.986 C 247.087 12.838,238.822 11.325,233.200 10.836 C 228.209 10.402,224.809 9.484,221.275 7.615 C 216.709 5.201,214.553 4.484,211.146 4.245 C 209.246 4.112,206.546 3.659,205.146 3.239 C 203.746 2.818,201.340 2.270,199.800 2.020 C 196.086 1.417,195.600 1.249,195.600 0.573 C 195.600 0.100,194.515 0.000,189.400 0.000 C 184.367 0.000,183.200 0.105,183.200 0.557 M245.247 340.826 C 243.169 341.020,241.089 341.443,240.585 341.773 C 240.084 342.101,238.803 342.579,237.737 342.834 C 236.672 343.089,235.255 343.607,234.588 343.984 C 233.922 344.361,232.850 344.801,232.207 344.962 C 231.119 345.236,225.359 348.368,220.501 351.329 C 213.116 355.830,208.564 362.826,211.900 364.547 C 214.726 366.005,223.123 362.838,227.181 358.783 C 228.182 357.783,229.630 356.494,230.400 355.917 C 231.170 355.341,232.424 354.288,233.186 353.578 C 234.567 352.293,235.681 351.541,238.458 350.023 C 239.260 349.585,240.160 348.995,240.458 348.713 C 245.279 344.147,265.826 344.243,272.800 348.864 C 274.342 349.886,278.295 350.585,279.039 349.967 C 280.588 348.682,278.777 346.963,274.200 345.372 C 273.100 344.990,271.806 344.421,271.325 344.109 C 270.844 343.796,269.314 343.281,267.925 342.963 C 266.536 342.646,264.590 342.049,263.600 341.638 C 261.412 340.728,251.151 340.275,245.247 340.826 M231.456 367.142 L 230.362 368.283 231.323 368.913 C 231.851 369.259,232.984 369.669,233.842 369.824 C 236.974 370.392,239.579 373.219,239.596 376.067 C 239.605 377.638,241.284 380.402,243.905 383.162 L 246.717 386.123 251.059 385.849 C 253.446 385.698,256.560 385.376,257.977 385.133 C 260.941 384.625,266.534 384.931,269.200 385.748 C 274.601 387.404,278.574 386.878,279.613 384.370 C 280.279 382.761,282.043 382.000,285.107 382.000 C 286.390 382.000,287.656 381.784,287.920 381.520 C 289.534 379.906,286.088 371.971,283.060 370.330 C 282.228 369.879,279.668 370.261,272.600 371.891 C 266.872 373.212,259.056 373.548,255.000 372.649 C 249.956 371.530,247.027 370.721,245.343 369.981 C 244.432 369.580,242.992 369.130,242.143 368.981 C 241.295 368.832,240.163 368.436,239.630 368.100 C 238.923 367.655,233.401 366.000,232.624 366.000 C 232.583 366.000,232.057 366.514,231.456 367.142 M209.293 450.410 C 205.015 452.151,198.735 458.844,197.571 462.901 C 197.022 464.815,197.640 465.064,200.077 463.911 C 201.245 463.358,202.830 462.770,203.600 462.604 C 206.494 461.980,210.400 459.038,210.400 457.483 C 210.400 457.214,210.849 456.151,211.397 455.120 C 213.006 452.099,211.797 449.391,209.293 450.410 M168.500 452.214 C 165.899 454.039,167.817 457.500,172.824 460.012 C 175.838 461.524,177.130 462.441,178.466 464.013 C 180.758 466.710,182.331 467.583,183.071 466.571 C 185.845 462.777,172.369 449.499,168.500 452.214 M200.800 500.287 C 200.250 500.385,198.810 500.886,197.600 501.401 C 190.645 504.361,187.804 504.573,182.200 502.547 C 177.517 500.853,175.395 500.567,171.933 501.163 C 167.455 501.933,163.033 503.035,161.786 503.692 C 161.119 504.044,159.859 504.452,158.986 504.600 C 156.978 504.939,151.668 506.606,148.800 507.798 C 147.590 508.300,145.951 508.825,145.157 508.963 C 137.232 510.346,135.895 516.324,142.037 522.925 C 153.979 535.762,157.097 537.924,167.600 540.645 C 175.742 542.754,189.366 542.916,195.797 540.981 C 196.858 540.661,198.829 540.400,200.176 540.400 C 218.430 540.400,230.933 534.371,239.527 521.422 C 240.557 519.870,241.994 517.809,242.720 516.843 C 245.495 513.149,243.609 510.530,237.200 509.179 C 235.990 508.924,234.050 508.285,232.888 507.758 C 231.727 507.231,230.194 506.800,229.482 506.800 C 228.770 506.800,227.480 506.420,226.614 505.956 C 225.748 505.492,223.778 504.937,222.237 504.724 C 220.697 504.510,218.970 504.095,218.401 503.800 C 217.832 503.506,216.204 503.057,214.783 502.803 C 213.362 502.549,211.480 502.004,210.600 501.593 C 208.067 500.409,203.520 499.803,200.800 500.287 M220.012 512.221 C 220.348 512.318,220.828 512.939,221.078 513.600 C 221.660 515.142,221.876 515.100,212.000 515.361 C 206.180 515.514,203.291 515.774,200.620 516.383 C 198.651 516.833,196.389 517.200,195.593 517.200 C 194.797 517.200,193.168 517.502,191.973 517.872 C 186.629 519.523,170.095 517.738,168.524 515.339 C 167.967 514.490,167.970 514.305,168.563 513.400 L 169.218 512.400 179.109 512.348 C 184.549 512.319,192.420 512.160,196.600 511.995 C 203.874 511.707,218.729 511.851,220.012 512.221 " stroke="none" fill="#D3D3D3" fill-rule="evenodd"></path><path id="path1" d="M0.000 85.429 C 0.000 165.944,0.040 170.851,0.687 170.726 C 1.113 170.644,1.610 169.838,1.998 168.597 C 2.342 167.499,2.936 166.017,3.320 165.304 C 3.703 164.591,4.291 162.521,4.626 160.704 C 4.961 158.887,5.511 155.960,5.849 154.200 C 6.584 150.374,6.373 143.981,5.397 140.502 C 4.328 136.692,4.895 135.817,8.215 136.157 C 11.677 136.512,12.400 136.107,12.400 133.812 C 12.400 131.357,12.928 130.205,15.329 127.422 C 21.638 120.109,24.000 115.929,24.000 112.077 C 24.000 107.566,25.941 104.835,30.835 102.457 C 35.803 100.043,35.655 100.408,34.825 92.600 C 34.311 87.766,34.512 86.337,36.033 84.031 C 36.675 83.059,37.200 82.122,37.200 81.950 C 37.200 81.292,40.962 78.800,41.958 78.799 C 43.265 78.797,46.934 76.373,49.257 73.975 C 51.025 72.150,52.881 70.958,55.700 69.837 C 57.380 69.169,57.428 68.981,56.610 66.285 C 56.059 64.468,56.072 64.328,56.866 63.534 C 57.751 62.649,57.751 62.649,64.493 63.441 C 67.206 63.760,67.806 63.406,68.421 61.123 C 68.768 59.834,69.122 59.431,70.324 58.956 C 76.383 56.563,77.287 55.934,77.119 54.228 C 76.900 51.999,75.495 51.943,65.675 53.772 C 58.336 55.138,55.546 50.431,62.133 47.796 C 63.417 47.282,65.194 46.353,66.082 45.731 C 71.637 41.842,72.216 41.776,81.021 44.040 C 88.024 45.841,94.288 46.523,95.394 45.605 C 97.773 43.631,93.602 37.274,88.735 35.457 C 85.159 34.122,86.473 32.141,90.702 32.492 C 94.312 32.791,95.635 32.275,95.318 30.691 C 94.899 28.594,93.533 26.460,91.134 24.153 C 87.480 20.640,89.307 18.451,94.600 19.999 C 96.546 20.568,101.189 21.530,104.200 21.988 C 105.740 22.223,108.530 22.754,110.400 23.169 C 114.943 24.178,120.517 24.579,121.640 23.979 C 122.645 23.441,122.532 20.480,121.430 18.492 C 121.098 17.891,120.548 16.770,120.209 16.000 C 119.871 15.230,119.224 14.024,118.772 13.320 C 117.657 11.585,118.239 10.400,120.205 10.400 C 120.962 10.400,122.531 9.889,123.691 9.265 C 126.286 7.868,127.648 8.229,129.200 10.721 C 129.750 11.604,131.280 13.903,132.600 15.828 C 133.920 17.754,135.313 19.796,135.695 20.365 C 136.077 20.934,136.572 21.382,136.795 21.360 C 137.018 21.338,137.380 21.293,137.600 21.260 C 138.216 21.168,138.074 18.904,137.367 17.537 C 136.614 16.080,136.896 14.550,137.983 14.205 C 138.842 13.933,140.749 15.782,142.818 18.895 C 147.769 26.345,151.215 25.125,151.908 15.676 C 152.214 11.503,152.397 10.625,153.107 9.915 L 153.945 9.078 156.020 9.970 C 158.623 11.090,158.898 11.019,164.928 7.645 C 167.608 6.146,170.520 4.691,171.400 4.411 C 172.280 4.132,173.540 3.586,174.200 3.199 C 174.860 2.811,176.903 2.281,178.739 2.020 C 182.697 1.457,183.200 1.292,183.200 0.557 C 183.200 0.083,169.629 0.000,91.600 0.000 L 0.000 0.000 0.000 85.429 M195.600 0.573 C 195.600 1.249,196.086 1.417,199.800 2.020 C 201.340 2.270,203.746 2.818,205.146 3.239 C 206.546 3.659,209.246 4.112,211.146 4.245 C 214.553 4.484,216.709 5.201,221.275 7.615 C 224.809 9.484,228.209 10.402,233.200 10.836 C 238.822 11.325,247.087 12.838,250.400 13.986 C 251.610 14.404,254.400 15.216,256.600 15.790 C 258.800 16.363,261.410 17.094,262.400 17.414 C 263.458 17.756,266.188 18.039,269.026 18.101 L 273.853 18.206 277.124 20.107 C 281.774 22.809,283.399 23.286,286.902 22.978 C 289.979 22.708,292.392 23.392,294.663 25.178 C 295.781 26.058,300.966 27.812,303.509 28.171 C 305.687 28.479,312.689 35.247,314.596 38.889 C 315.926 41.430,317.142 42.207,320.479 42.646 C 323.719 43.074,325.432 44.403,326.000 46.932 C 327.461 53.437,328.898 55.305,337.600 62.008 C 343.691 66.701,347.600 70.951,347.600 72.883 C 347.600 74.452,351.045 79.070,355.596 83.600 C 360.863 88.843,362.376 90.948,363.150 94.111 C 363.693 96.333,365.542 100.291,366.757 101.836 C 367.221 102.426,367.600 103.142,367.600 103.427 C 367.600 103.713,368.365 104.579,369.300 105.352 C 370.235 106.125,371.591 107.532,372.314 108.479 C 373.036 109.425,374.161 110.900,374.814 111.755 C 375.466 112.610,376.000 113.696,376.000 114.168 C 376.000 115.469,378.354 118.851,380.840 121.123 C 382.390 122.540,383.210 123.656,383.561 124.826 C 384.301 127.297,385.594 135.131,385.597 137.162 C 385.602 140.153,386.938 141.452,390.363 141.796 C 393.517 142.113,396.842 144.189,398.215 146.700 C 400.064 150.081,400.000 152.689,400.000 74.000 L 400.000 0.000 297.800 0.000 C 209.359 0.000,195.600 0.077,195.600 0.573 M281.800 48.674 C 281.360 48.774,280.280 49.102,279.400 49.404 C 278.520 49.705,276.900 50.066,275.800 50.205 C 273.885 50.448,268.370 52.918,262.442 56.189 C 257.478 58.928,254.974 56.273,258.741 52.263 C 260.470 50.423,257.513 49.506,254.861 51.060 C 253.053 52.120,252.209 52.157,248.063 51.356 C 245.986 50.956,240.361 54.034,232.600 59.818 C 229.127 62.406,225.600 63.560,225.600 62.108 C 225.600 59.950,222.657 59.962,220.860 62.127 C 220.438 62.637,217.752 64.026,211.800 66.815 C 210.920 67.228,209.539 67.762,208.732 68.003 C 207.925 68.244,207.055 68.693,206.800 69.000 C 206.545 69.307,205.736 69.757,205.003 69.999 C 204.270 70.241,203.578 70.681,203.464 70.978 C 203.350 71.274,202.389 71.809,201.329 72.167 C 197.978 73.295,195.714 75.679,194.470 79.387 C 192.667 84.757,189.352 85.088,189.432 79.889 C 189.560 71.624,190.394 63.505,191.258 62.107 C 192.154 60.657,192.360 57.804,191.622 57.063 C 191.091 56.530,189.586 57.524,187.116 60.038 C 183.967 63.243,183.056 63.632,177.919 63.971 C 172.579 64.324,172.005 64.743,170.745 69.216 C 170.283 70.857,169.593 72.830,169.211 73.600 C 168.170 75.702,166.659 84.047,166.912 86.296 C 167.030 87.343,167.355 89.709,167.633 91.554 C 168.304 95.997,166.645 97.534,163.958 94.960 C 162.903 93.949,160.400 93.830,160.400 94.792 C 160.400 94.972,159.725 96.036,158.900 97.157 C 158.075 98.277,156.950 99.943,156.400 100.859 C 155.291 102.707,153.123 105.951,150.962 109.000 C 150.182 110.100,149.111 111.900,148.582 113.000 C 148.052 114.100,147.439 115.270,147.219 115.600 C 146.999 115.930,146.548 116.830,146.217 117.600 C 145.886 118.370,145.079 119.900,144.425 121.000 C 143.770 122.100,143.041 123.434,142.803 123.964 C 142.566 124.494,141.838 126.021,141.186 127.358 C 139.281 131.263,139.510 133.973,142.018 137.200 C 143.097 138.588,143.801 140.551,143.433 141.146 C 143.196 141.530,136.789 139.473,135.411 138.570 C 134.233 137.799,130.569 137.670,129.866 138.376 C 128.228 140.021,130.547 146.480,135.030 152.759 C 136.236 154.449,136.296 156.409,135.171 157.427 C 134.247 158.262,134.224 161.204,135.105 165.600 C 135.348 166.810,135.765 169.330,136.032 171.200 C 136.299 173.070,136.751 175.270,137.037 176.089 C 137.323 176.907,137.685 179.156,137.841 181.086 C 138.052 183.687,138.420 185.215,139.263 186.997 C 139.888 188.319,140.400 189.700,140.400 190.066 C 140.400 190.432,140.749 191.152,141.175 191.666 C 146.277 197.818,146.282 197.826,145.953 198.717 C 145.471 200.018,143.404 199.884,141.064 198.400 C 140.024 197.740,139.043 197.199,138.886 197.197 C 138.729 197.195,137.160 196.356,135.400 195.332 C 133.640 194.308,131.234 192.954,130.054 192.323 L 127.908 191.177 125.788 191.970 C 123.034 193.001,121.850 192.660,119.111 190.051 C 117.950 188.944,115.472 186.572,113.605 184.779 C 108.842 180.206,107.687 180.161,104.760 184.430 L 104.121 185.363 101.606 184.235 C 99.090 183.106,96.000 183.203,96.000 184.411 C 96.000 185.612,85.913 189.329,81.354 189.809 C 80.008 189.950,78.450 190.366,77.891 190.733 C 74.844 192.732,70.925 195.471,70.408 195.963 C 70.083 196.273,69.050 196.865,68.112 197.280 C 66.005 198.212,65.547 199.496,66.613 201.476 C 67.266 202.688,67.288 203.046,66.825 204.855 C 66.185 207.351,66.603 207.920,69.458 208.444 C 73.460 209.178,74.678 210.296,73.426 212.085 C 72.413 213.531,72.674 214.700,74.417 216.514 C 76.617 218.803,76.830 222.000,74.782 222.000 C 74.185 222.000,70.800 225.225,70.800 225.794 C 70.800 226.065,71.430 227.495,72.200 228.972 C 72.970 230.449,73.600 231.913,73.600 232.225 C 73.600 232.537,74.233 233.199,75.006 233.696 C 76.278 234.514,77.350 236.509,76.931 237.279 C 76.298 238.441,72.757 240.140,70.400 240.412 C 68.970 240.577,66.630 240.988,65.200 241.325 C 63.770 241.662,61.121 242.109,59.313 242.319 C 52.467 243.113,50.642 245.705,49.988 255.561 C 49.802 258.357,49.457 261.444,49.219 262.422 C 48.982 263.400,48.538 268.070,48.233 272.800 C 47.791 279.670,47.511 281.825,46.842 283.510 C 45.241 287.541,45.353 293.833,47.050 295.241 C 47.816 295.877,47.737 298.411,46.900 300.039 C 45.874 302.034,45.910 313.453,46.950 315.800 C 47.463 316.957,47.763 319.210,48.036 323.936 C 48.329 329.015,48.590 330.861,49.207 332.215 C 49.643 333.172,50.000 334.126,50.000 334.333 C 50.000 334.540,50.436 336.034,50.968 337.654 C 53.575 345.583,53.602 349.845,51.137 363.588 C 49.357 373.510,50.369 377.700,55.971 383.600 C 57.746 385.470,59.294 387.450,59.411 388.000 C 59.527 388.550,59.817 389.540,60.055 390.200 C 60.768 392.180,61.655 398.509,61.409 399.860 C 60.914 402.574,59.774 402.381,58.674 399.397 C 55.932 391.955,53.007 387.502,50.400 386.800 C 46.999 385.884,45.800 384.469,45.800 381.369 C 45.800 378.971,45.641 378.359,44.614 376.800 C 43.606 375.270,40.667 371.444,40.005 370.800 C 38.577 369.409,35.631 365.486,35.201 364.400 C 34.359 362.274,31.579 357.873,28.800 354.268 C 24.648 348.881,24.086 347.036,26.292 346.031 C 27.489 345.486,27.353 345.365,29.701 349.049 C 31.710 352.199,33.318 353.016,34.638 351.558 C 35.688 350.398,35.056 348.547,31.047 341.040 C 29.288 337.747,30.041 336.000,33.219 336.000 C 34.586 336.000,35.693 335.238,36.568 333.694 C 36.986 332.956,32.635 325.072,30.912 323.446 C 29.307 321.933,28.699 321.963,26.288 323.680 L 25.080 324.540 23.949 323.273 C 22.485 321.635,22.158 320.237,22.766 318.224 C 23.035 317.331,23.504 315.740,23.808 314.689 C 24.112 313.638,24.891 312.247,25.540 311.599 C 28.513 308.625,29.727 297.490,27.763 291.200 C 26.868 288.333,26.866 284.676,27.758 282.402 C 28.767 279.830,28.656 276.510,27.476 273.920 C 26.667 272.145,26.431 270.683,26.026 264.932 C 25.761 261.155,25.276 256.835,24.950 255.332 C 24.603 253.738,24.258 249.256,24.120 244.570 L 23.884 236.540 24.984 234.664 C 26.147 232.679,26.139 231.236,24.958 230.003 C 21.895 226.806,19.854 221.941,20.207 218.678 C 21.139 210.060,20.900 209.373,14.630 202.682 C 9.947 197.685,8.800 195.532,8.800 191.740 C 8.800 189.184,8.662 188.671,7.500 186.912 C 6.785 185.829,5.750 184.176,5.200 183.239 C 4.650 182.302,3.816 181.053,3.346 180.464 C 2.876 179.875,2.210 178.720,1.866 177.897 C 1.522 177.073,0.962 176.400,0.620 176.400 C 0.061 176.400,0.000 197.142,0.000 388.600 L 0.000 600.800 200.000 600.800 L 400.000 600.800 400.000 375.800 C 400.000 172.862,399.939 150.800,399.380 150.800 C 399.039 150.800,398.202 151.089,397.519 151.442 C 396.836 151.795,394.871 152.180,393.152 152.298 C 386.878 152.728,386.502 154.015,391.192 159.000 C 392.641 160.540,394.166 162.571,394.580 163.513 L 395.333 165.225 394.037 169.207 C 393.324 171.397,392.585 173.286,392.394 173.404 C 392.203 173.522,391.936 174.469,391.802 175.509 C 391.668 176.549,391.280 179.163,390.940 181.318 C 390.423 184.596,390.401 185.793,390.807 188.650 C 391.454 193.205,390.900 195.708,387.813 202.200 C 386.003 206.006,385.215 208.118,384.605 210.800 C 384.230 212.450,383.750 214.340,383.537 215.000 C 383.167 216.151,381.141 225.231,380.325 229.400 C 380.110 230.500,379.592 232.760,379.174 234.422 C 378.756 236.084,378.224 239.684,377.991 242.422 C 377.759 245.160,377.261 248.210,376.884 249.200 C 375.802 252.047,375.950 256.598,377.190 258.593 C 378.258 260.312,378.276 260.566,377.954 269.800 C 377.806 274.040,377.844 274.286,379.000 276.577 C 380.444 279.438,380.556 283.253,379.359 288.816 C 377.085 299.382,378.748 311.565,383.028 315.683 L 385.400 317.965 384.572 318.800 C 383.877 319.500,383.565 319.567,382.646 319.217 C 380.042 318.227,378.251 318.705,375.200 321.203 C 374.210 322.013,372.744 323.067,371.941 323.545 C 366.869 326.567,369.132 329.668,375.511 328.434 C 378.888 327.781,383.045 329.139,385.419 331.673 C 391.082 337.714,386.213 343.016,379.908 337.676 C 378.975 336.886,378.000 337.679,378.000 339.226 C 378.000 340.072,378.418 340.686,379.666 341.677 C 382.721 344.102,384.748 346.505,384.994 347.992 C 385.587 351.580,386.117 356.070,386.281 358.900 L 386.461 362.000 384.911 362.000 L 383.360 362.000 381.451 357.900 C 379.288 353.256,378.369 352.330,375.060 351.466 C 372.768 350.867,371.200 351.445,371.200 352.888 C 371.200 354.057,372.508 356.033,373.668 356.619 C 378.928 359.274,381.293 365.542,379.240 371.383 C 378.822 372.573,378.351 374.308,378.193 375.239 C 378.036 376.170,377.478 377.739,376.954 378.725 C 376.429 379.712,376.000 380.994,376.000 381.575 C 376.000 382.156,375.626 383.344,375.169 384.215 C 374.712 385.087,374.087 386.610,373.780 387.600 C 372.907 390.415,368.686 394.881,367.049 394.722 C 365.498 394.571,365.243 393.474,366.202 391.079 C 369.567 382.669,358.741 376.774,351.526 383.087 C 351.156 383.411,350.256 383.704,349.526 383.738 L 348.200 383.800 348.078 381.420 C 348.010 380.111,348.249 377.720,348.608 376.108 C 349.696 371.217,349.020 364.602,347.187 362.200 C 346.312 361.054,345.527 356.946,345.364 352.658 C 345.106 345.895,344.637 345.468,339.600 347.397 C 338.164 347.947,337.031 348.041,334.000 347.864 C 330.290 347.646,330.138 347.672,327.600 348.963 C 326.170 349.689,323.679 350.782,322.065 351.391 C 317.333 353.174,317.146 353.748,318.599 362.037 C 319.520 367.289,317.636 373.859,315.575 372.585 C 314.801 372.106,312.802 367.326,312.524 365.288 C 312.383 364.250,311.849 362.500,311.337 361.400 C 310.826 360.300,310.406 359.171,310.404 358.892 C 310.400 358.445,308.948 355.363,306.135 349.832 C 305.659 348.896,304.708 347.336,304.020 346.365 C 303.333 345.394,302.353 343.970,301.841 343.200 C 301.330 342.430,298.098 339.010,294.660 335.600 C 288.416 329.408,287.957 328.759,288.903 327.465 C 289.374 326.821,289.559 326.839,291.803 327.748 C 293.121 328.283,295.640 328.934,297.400 329.195 C 300.610 329.673,304.092 331.052,306.905 332.961 C 312.094 336.483,314.884 334.842,315.002 328.200 C 315.053 325.325,315.258 324.197,316.018 322.600 C 317.122 320.279,317.220 316.339,316.565 300.577 L 316.199 291.753 314.320 287.977 C 313.286 285.900,312.315 283.480,312.162 282.600 C 312.009 281.720,311.550 280.571,311.142 280.046 C 310.734 279.521,310.400 278.752,310.400 278.337 C 310.400 277.922,309.883 276.281,309.251 274.691 C 308.619 273.101,307.695 270.749,307.197 269.463 C 306.700 268.178,306.138 265.568,305.949 263.663 C 305.759 261.759,305.324 258.954,304.982 257.432 C 304.593 255.704,304.452 253.900,304.606 252.632 C 304.878 250.382,304.212 247.982,302.653 245.600 C 302.149 244.830,301.539 243.660,301.299 243.000 C 297.869 233.591,295.772 229.948,291.207 225.466 C 285.832 220.190,284.965 220.174,284.377 225.341 C 284.038 228.317,282.287 232.793,280.800 234.482 C 276.042 239.886,273.807 242.324,268.443 247.963 C 265.009 251.573,259.950 256.754,257.200 259.476 C 254.450 262.199,248.060 268.523,243.000 273.532 C 233.470 282.964,218.444 298.455,215.774 301.600 C 214.933 302.590,213.216 304.480,211.959 305.800 C 206.210 311.832,196.436 322.812,193.345 326.710 C 191.473 329.069,189.585 331.450,189.148 332.000 C 187.447 334.143,183.765 339.169,183.100 340.256 C 182.714 340.885,182.018 341.993,181.552 342.718 C 180.671 344.089,180.785 345.411,182.087 348.900 C 182.679 350.488,186.049 350.068,187.588 348.215 C 187.876 347.868,189.571 346.861,191.356 345.978 C 193.140 345.095,195.590 343.755,196.800 343.000 C 198.010 342.245,199.582 341.362,200.293 341.038 C 201.003 340.713,202.713 339.777,204.093 338.958 C 207.416 336.983,209.584 335.775,213.200 333.882 C 214.850 333.018,218.090 331.274,220.400 330.006 C 222.710 328.738,225.050 327.564,225.600 327.398 C 226.150 327.231,227.050 326.789,227.600 326.415 C 228.150 326.041,231.028 324.523,233.996 323.043 C 236.964 321.562,239.664 320.114,239.996 319.826 C 240.328 319.537,241.320 319.072,242.200 318.792 C 243.080 318.513,244.214 317.962,244.721 317.568 C 246.715 316.018,252.400 316.373,252.400 318.049 C 252.400 318.956,251.026 320.738,249.841 321.368 C 247.515 322.603,244.444 324.596,241.026 327.089 C 239.148 328.458,236.906 329.938,236.043 330.378 C 235.180 330.818,234.412 331.318,234.337 331.489 C 234.141 331.933,230.910 334.400,230.523 334.401 C 230.346 334.401,229.210 335.124,228.000 336.006 C 226.790 336.889,225.284 337.924,224.654 338.306 C 224.023 338.687,222.801 339.577,221.938 340.282 C 221.074 340.987,219.475 342.142,218.384 342.849 C 217.293 343.556,216.400 344.247,216.400 344.385 C 216.400 344.523,215.457 345.348,214.305 346.218 C 210.179 349.335,205.766 353.614,201.124 359.000 C 199.796 360.540,197.181 363.420,195.313 365.400 C 190.745 370.240,191.108 369.757,189.074 373.716 C 188.080 375.650,186.526 378.260,185.620 379.516 C 184.022 381.731,182.466 384.129,180.400 387.561 C 179.850 388.474,178.815 390.156,178.100 391.297 C 177.385 392.439,176.800 393.504,176.800 393.665 C 176.800 393.826,175.900 395.362,174.800 397.079 C 173.700 398.795,172.800 400.369,172.800 400.576 C 172.800 401.414,165.137 416.407,163.722 418.340 C 162.885 419.483,161.407 421.673,160.439 423.209 C 159.470 424.744,158.552 426.000,158.399 426.000 C 158.246 426.000,157.107 427.492,155.868 429.317 C 154.629 431.141,152.575 433.886,151.304 435.417 C 148.609 438.662,145.785 442.258,144.483 444.101 C 143.979 444.816,142.889 446.120,142.062 447.000 C 141.235 447.880,139.398 450.038,137.979 451.795 C 135.299 455.115,133.623 457.069,129.395 461.800 C 127.281 464.165,122.120 470.322,119.169 474.000 C 112.494 482.319,109.286 488.485,107.408 496.606 C 107.102 497.929,106.639 499.549,106.378 500.206 C 106.118 500.863,105.752 502.840,105.566 504.600 C 105.380 506.360,104.955 509.240,104.622 511.000 C 104.288 512.760,103.824 515.460,103.589 517.000 C 103.355 518.540,102.960 520.757,102.711 521.927 C 102.034 525.115,103.450 528.260,107.708 533.026 C 108.678 534.112,110.089 535.810,110.844 536.800 C 112.487 538.957,113.653 540.353,115.839 542.780 C 116.741 543.781,117.641 544.891,117.839 545.246 C 118.038 545.601,118.740 546.571,119.400 547.401 C 123.726 552.840,126.270 555.987,127.354 557.240 C 128.039 558.033,129.230 559.528,130.000 560.564 C 130.770 561.600,132.210 563.354,133.200 564.462 C 134.190 565.570,135.167 566.775,135.371 567.139 C 136.376 568.931,148.460 581.328,151.544 583.730 C 155.551 586.851,158.997 589.200,159.570 589.200 C 159.884 589.200,163.194 590.198,166.925 591.418 C 177.511 594.878,181.283 595.381,192.378 594.808 C 197.340 594.552,206.170 594.177,212.000 593.974 C 224.534 593.539,225.679 593.380,229.600 591.529 C 232.587 590.119,233.160 589.730,238.728 585.319 C 243.174 581.798,252.462 572.453,257.605 566.327 C 263.655 559.121,269.866 551.297,272.000 548.194 C 272.550 547.394,273.630 545.961,274.400 545.009 C 275.874 543.188,280.440 536.740,281.800 534.561 C 282.240 533.856,283.410 532.228,284.400 530.943 C 285.390 529.659,286.740 527.793,287.400 526.797 C 288.060 525.801,289.876 523.279,291.435 521.193 C 292.994 519.107,295.043 516.230,295.989 514.800 C 296.935 513.370,298.185 511.480,298.767 510.600 C 299.350 509.720,300.080 508.497,300.390 507.881 C 300.701 507.266,301.522 506.096,302.216 505.281 C 302.909 504.467,303.712 503.350,304.001 502.800 C 304.289 502.250,305.932 499.677,307.651 497.083 C 309.369 494.489,311.345 491.159,312.041 489.683 C 312.738 488.207,313.508 486.748,313.754 486.440 C 314.886 485.021,318.196 474.867,318.787 471.000 C 319.023 469.460,319.476 467.120,319.795 465.800 C 320.842 461.457,321.204 452.653,320.763 442.270 C 320.195 428.893,320.657 424.059,323.599 412.600 C 324.391 409.514,327.543 402.773,329.745 399.457 C 331.694 396.520,335.194 392.800,336.007 392.800 C 338.052 392.800,337.983 396.175,335.908 397.629 C 333.874 399.056,331.160 407.753,331.938 410.352 C 332.515 412.275,332.219 413.834,331.018 415.200 C 329.976 416.385,327.594 420.040,326.610 421.965 C 323.128 428.775,333.750 432.346,341.974 427.131 C 342.954 426.509,343.978 426.000,344.248 426.000 C 344.518 426.000,345.247 425.572,345.869 425.050 C 347.263 423.879,352.459 421.200,353.336 421.200 C 354.742 421.200,355.083 423.107,355.341 432.400 C 355.598 441.674,356.299 450.412,357.347 457.400 C 357.677 459.600,358.151 463.200,358.401 465.400 C 359.762 477.379,360.519 481.074,362.356 484.713 C 364.690 489.337,364.714 490.105,362.597 492.583 C 360.334 495.231,360.256 496.238,361.723 503.800 C 362.278 506.660,362.845 509.720,362.984 510.600 C 363.123 511.480,363.669 513.910,364.197 516.000 C 366.627 525.617,366.352 527.600,362.590 527.600 C 361.336 527.600,360.538 528.860,360.182 531.400 C 360.028 532.500,359.582 534.120,359.190 535.000 C 357.794 538.137,358.311 540.213,360.937 542.013 C 366.063 545.526,362.696 548.038,351.910 548.749 C 346.145 549.129,345.388 549.744,343.210 555.815 C 342.970 556.483,342.022 557.833,341.104 558.815 C 338.426 561.679,334.400 566.543,334.400 566.914 C 334.400 567.725,331.815 570.911,330.396 571.850 C 328.925 572.824,328.624 572.868,324.324 572.737 L 319.800 572.600 319.678 574.056 C 319.451 576.781,324.166 582.499,332.499 589.603 C 334.097 590.966,334.105 591.428,332.539 592.023 C 330.725 592.713,323.908 586.929,317.440 579.211 C 310.121 570.478,308.602 561.734,310.840 541.200 C 311.067 539.110,311.433 535.997,311.651 534.282 C 311.870 532.568,312.117 528.788,312.200 525.882 C 312.283 522.977,312.468 517.540,312.612 513.800 C 312.907 506.122,312.667 504.800,310.978 504.800 C 309.752 504.800,307.260 507.095,306.202 509.200 C 305.814 509.970,304.747 511.500,303.830 512.600 C 302.913 513.700,301.103 516.220,299.807 518.200 C 298.510 520.180,297.113 522.160,296.702 522.600 C 296.291 523.040,295.200 524.585,294.277 526.034 C 292.171 529.342,286.268 538.006,284.200 540.823 C 283.760 541.423,282.510 543.238,281.423 544.857 C 280.335 546.475,279.239 547.980,278.988 548.200 C 278.737 548.420,278.073 549.320,277.514 550.200 C 276.954 551.080,275.214 553.274,273.648 555.076 C 272.082 556.877,270.800 558.532,270.800 558.753 C 270.800 558.974,270.485 559.390,270.100 559.677 C 269.715 559.965,268.511 561.370,267.425 562.800 C 266.339 564.230,264.845 566.120,264.105 567.000 C 263.365 567.880,261.028 570.670,258.912 573.200 C 246.972 587.476,240.724 593.037,234.899 594.574 C 233.854 594.850,232.460 595.352,231.800 595.690 C 230.701 596.253,228.929 596.606,222.800 597.482 C 221.590 597.655,215.740 597.799,209.800 597.801 C 202.089 597.805,197.341 598.004,193.200 598.498 C 183.376 599.670,181.823 599.732,175.310 599.214 C 170.347 598.819,168.573 598.517,167.000 597.801 C 165.900 597.300,164.402 596.763,163.671 596.607 C 157.214 595.230,141.127 582.418,137.474 575.743 C 136.877 574.653,132.505 569.281,129.800 566.313 C 128.920 565.347,127.390 563.607,126.400 562.445 C 125.410 561.284,123.790 559.477,122.800 558.431 C 121.810 557.385,120.425 555.825,119.723 554.965 C 119.020 554.104,117.310 552.016,115.923 550.324 C 114.535 548.632,112.950 546.595,112.400 545.798 C 107.992 539.407,104.933 536.727,102.911 537.485 C 101.515 538.008,96.400 543.123,91.800 548.596 C 81.776 560.522,72.332 563.323,54.812 559.565 C 53.208 559.221,52.209 558.657,50.563 557.167 C 48.384 555.193,46.917 554.516,45.772 554.955 C 44.442 555.466,42.000 552.719,42.000 550.712 C 42.000 549.755,43.622 546.804,45.163 544.957 C 46.921 542.850,47.340 542.280,49.246 539.394 C 53.199 533.413,54.849 530.504,60.475 519.600 C 63.501 513.735,64.409 511.542,66.814 504.299 C 67.892 501.053,68.954 498.059,69.176 497.645 C 69.397 497.232,69.770 495.567,70.005 493.947 C 70.240 492.326,70.773 490.280,71.189 489.400 C 71.605 488.520,72.071 486.630,72.224 485.200 C 72.376 483.770,72.759 481.970,73.073 481.200 C 73.861 479.272,73.863 470.500,73.077 465.400 C 72.738 463.200,72.344 458.430,72.201 454.800 C 72.058 451.170,71.689 446.580,71.381 444.600 C 71.073 442.620,70.772 439.750,70.711 438.223 L 70.600 435.446 71.912 435.062 C 74.900 434.187,76.050 436.049,76.200 442.000 C 76.351 448.008,79.380 468.337,80.835 473.108 C 81.256 474.488,81.604 476.378,81.609 477.308 C 81.614 478.239,81.959 479.752,82.376 480.671 C 82.794 481.591,83.262 483.391,83.417 484.671 C 83.572 485.952,83.932 487.720,84.219 488.600 C 84.505 489.480,84.937 491.010,85.178 492.000 C 86.037 495.523,88.065 501.822,88.788 503.211 C 89.191 503.987,89.733 505.408,89.992 506.369 C 90.250 507.330,90.808 508.630,91.231 509.258 C 91.654 509.886,92.352 510.922,92.782 511.560 C 93.213 512.198,93.679 513.174,93.818 513.728 C 93.957 514.283,94.640 515.635,95.335 516.732 C 96.031 517.829,96.796 519.052,97.035 519.449 C 97.791 520.706,99.004 518.321,98.984 515.618 C 98.915 506.230,98.217 497.484,97.475 496.713 C 96.838 496.050,94.928 491.355,94.663 489.800 C 94.551 489.140,94.800 487.160,95.217 485.400 C 95.634 483.640,96.150 480.092,96.365 477.516 C 96.579 474.939,96.931 472.503,97.146 472.101 C 97.361 471.699,97.815 468.857,98.155 465.785 C 98.495 462.713,99.042 459.390,99.370 458.400 C 99.698 457.410,100.152 455.204,100.379 453.499 C 100.606 451.793,101.154 449.324,101.596 448.011 C 102.038 446.699,102.400 445.274,102.400 444.844 C 102.400 443.533,107.461 429.733,108.083 429.349 C 108.564 429.051,111.431 423.220,111.755 421.878 C 111.904 421.261,112.785 419.804,113.713 418.640 C 115.302 416.645,116.110 415.434,117.652 412.733 C 118.010 412.105,119.219 410.558,120.337 409.295 C 124.832 404.223,129.402 397.727,131.620 393.256 C 132.981 390.514,137.384 385.569,139.446 384.466 C 140.132 384.100,141.636 383.260,142.789 382.600 C 143.942 381.940,145.841 380.860,147.008 380.200 C 148.175 379.540,150.181 378.293,151.465 377.428 C 157.079 373.648,157.819 373.260,159.944 372.988 C 163.194 372.571,163.600 371.961,163.600 367.489 C 163.600 365.017,163.419 363.515,163.057 362.989 C 162.758 362.555,162.281 361.480,161.996 360.600 C 160.724 356.668,157.818 354.615,152.698 354.033 C 150.795 353.817,148.735 353.385,148.119 353.074 C 147.504 352.762,146.323 352.384,145.496 352.235 C 144.669 352.085,142.869 351.431,141.496 350.781 C 140.123 350.132,138.756 349.600,138.458 349.600 C 138.160 349.600,137.037 349.159,135.963 348.619 C 124.744 342.984,112.688 343.903,103.462 351.096 C 101.241 352.828,98.800 352.685,98.800 350.821 C 98.800 350.123,103.424 346.277,105.711 345.073 C 110.875 342.356,111.118 339.959,106.083 341.412 C 99.953 343.181,96.137 346.525,92.801 353.047 C 91.947 354.717,90.963 356.399,90.614 356.785 C 89.142 358.411,89.668 360.238,92.434 363.104 C 100.037 370.980,110.994 374.767,119.400 372.421 C 120.940 371.992,124.180 371.355,126.600 371.007 C 129.020 370.658,133.430 370.018,136.400 369.585 C 149.143 367.726,157.657 369.107,151.600 372.050 C 150.390 372.638,148.366 374.114,147.103 375.331 C 145.839 376.547,143.769 378.085,142.503 378.748 C 138.850 380.659,135.103 382.327,133.800 382.623 C 133.140 382.773,132.214 383.135,131.742 383.429 C 131.271 383.723,129.692 384.239,128.234 384.578 C 126.776 384.916,125.108 385.504,124.526 385.885 C 123.223 386.739,118.975 386.799,116.530 385.998 C 114.586 385.361,112.001 386.216,110.930 387.850 C 109.670 389.774,106.449 390.102,104.156 388.541 C 101.677 386.853,100.214 386.400,97.244 386.400 C 92.377 386.400,90.627 383.670,93.010 379.800 C 95.055 376.480,94.166 373.124,90.267 369.448 L 88.620 367.895 88.128 369.048 C 87.858 369.681,87.625 370.920,87.612 371.800 C 87.556 375.539,85.207 381.820,82.849 384.537 C 81.238 386.392,77.089 394.538,76.398 397.200 C 75.919 399.048,73.913 403.330,73.026 404.400 C 72.137 405.473,71.056 409.616,71.539 410.099 C 72.238 410.798,74.333 410.600,75.519 409.723 C 76.122 409.277,77.062 408.772,77.608 408.600 C 78.153 408.428,80.300 407.404,82.379 406.325 C 88.321 403.239,92.613 401.746,98.263 400.800 C 99.397 400.610,101.142 400.082,102.141 399.627 C 103.139 399.172,104.243 398.800,104.594 398.800 C 104.945 398.800,105.938 398.440,106.800 398.000 C 107.662 397.560,108.717 397.200,109.144 397.200 C 109.571 397.200,110.883 396.752,112.060 396.204 C 113.237 395.656,114.490 395.206,114.844 395.204 C 115.198 395.202,116.148 394.752,116.955 394.205 C 117.761 393.658,118.911 393.105,119.510 392.976 C 120.110 392.847,121.281 392.455,122.113 392.104 C 124.192 391.228,124.819 391.833,123.878 393.805 C 123.180 395.270,119.125 397.519,115.938 398.210 C 115.202 398.369,114.122 398.837,113.538 399.250 C 112.954 399.662,112.227 400.000,111.923 400.000 C 111.618 400.000,110.673 400.355,109.823 400.788 C 108.972 401.222,107.432 401.857,106.400 402.200 C 105.368 402.543,103.828 403.178,102.977 403.612 C 102.127 404.045,101.208 404.400,100.937 404.400 C 100.665 404.400,99.596 404.850,98.562 405.400 C 97.527 405.950,96.293 406.400,95.818 406.400 C 95.344 406.400,94.355 406.843,93.622 407.384 C 92.888 407.925,91.458 408.489,90.444 408.638 C 89.430 408.786,87.970 409.232,87.200 409.628 C 86.430 410.024,84.046 411.121,81.902 412.065 C 79.383 413.175,76.417 414.954,73.523 417.092 C 67.007 421.903,66.635 421.804,64.729 414.732 C 63.181 408.987,63.278 405.601,65.147 400.141 C 65.836 398.129,66.400 396.021,66.400 395.457 C 66.400 394.894,67.111 393.106,67.980 391.485 C 68.934 389.706,69.716 387.574,69.952 386.109 C 70.167 384.773,70.694 382.988,71.123 382.140 C 71.553 381.293,72.034 379.790,72.192 378.800 C 72.350 377.810,72.802 376.256,73.197 375.346 C 73.591 374.437,74.043 372.929,74.201 371.995 C 74.359 371.061,74.823 369.728,75.234 369.033 C 75.644 368.338,76.153 366.606,76.365 365.184 C 76.749 362.614,78.594 357.915,80.304 355.153 C 80.797 354.357,81.200 353.609,81.200 353.491 C 81.200 353.373,81.791 352.225,82.514 350.938 C 83.237 349.652,84.156 347.734,84.557 346.675 C 84.957 345.617,85.896 343.579,86.643 342.146 C 87.389 340.714,88.001 339.240,88.001 338.871 C 88.002 338.502,88.335 337.656,88.741 336.990 C 89.146 336.325,89.712 335.065,89.997 334.190 C 90.676 332.111,94.775 323.663,95.246 323.371 C 95.448 323.247,95.869 322.532,96.182 321.782 C 96.495 321.032,96.946 320.189,97.183 319.909 C 97.420 319.629,98.413 318.140,99.390 316.600 C 101.462 313.334,103.386 310.488,107.800 304.159 C 112.599 297.279,114.912 293.793,115.800 292.103 C 116.240 291.266,117.336 289.595,118.235 288.390 C 119.135 287.186,120.100 285.769,120.381 285.241 C 120.661 284.714,121.685 283.274,122.656 282.041 C 124.268 279.994,125.504 278.212,131.562 269.200 C 134.977 264.120,135.365 263.571,136.500 262.212 C 137.105 261.487,137.600 260.785,137.600 260.651 C 137.600 259.441,145.624 250.496,148.209 248.824 C 154.754 244.592,157.929 238.389,152.897 239.667 C 151.584 240.000,150.472 239.942,147.723 239.396 C 143.136 238.486,142.480 238.153,142.025 236.505 C 141.255 233.718,138.595 231.424,134.000 229.585 C 132.072 228.813,128.449 226.365,126.516 224.528 C 125.631 223.688,124.415 222.640,123.814 222.200 C 122.569 221.288,121.912 218.070,122.763 217.045 C 123.233 216.478,124.584 216.592,125.457 217.271 C 126.095 217.768,132.174 219.938,134.685 220.566 C 135.831 220.853,137.210 221.376,137.748 221.729 C 138.287 222.082,139.779 222.546,141.064 222.761 C 142.349 222.975,144.113 223.522,144.985 223.975 C 146.713 224.875,149.569 225.071,150.300 224.340 C 151.037 223.603,149.814 221.725,147.992 220.796 C 146.248 219.906,146.033 219.367,147.100 218.557 C 148.381 217.584,153.465 218.327,155.800 219.828 C 156.240 220.111,157.706 220.540,159.059 220.781 C 160.411 221.023,162.061 221.492,162.726 221.823 C 164.833 222.874,175.614 223.469,176.271 222.570 C 176.709 221.971,176.693 221.697,176.175 220.906 C 174.524 218.386,176.762 215.768,179.000 217.602 C 179.220 217.782,180.550 218.138,181.955 218.393 C 183.361 218.647,185.341 219.182,186.355 219.582 C 187.370 219.981,189.473 220.506,191.029 220.747 C 192.584 220.988,194.581 221.440,195.465 221.752 C 196.350 222.065,198.497 222.444,200.237 222.596 C 203.269 222.862,207.363 223.523,211.200 224.369 C 213.456 224.866,220.010 224.908,220.764 224.431 C 221.229 224.136,221.241 223.865,220.832 222.876 C 220.295 221.581,219.659 221.343,214.200 220.399 C 212.660 220.132,210.770 219.677,210.000 219.386 C 209.230 219.096,207.790 218.748,206.800 218.614 C 204.744 218.334,197.207 215.871,195.883 215.045 C 195.397 214.743,194.480 214.374,193.845 214.226 C 193.210 214.078,192.113 213.517,191.408 212.979 C 190.702 212.440,189.944 212.000,189.724 212.000 C 189.504 212.000,188.998 211.640,188.600 211.200 C 188.202 210.760,187.677 210.400,187.434 210.400 C 187.190 210.400,185.553 209.685,183.796 208.810 C 182.038 207.936,180.390 207.216,180.133 207.210 C 179.877 207.205,179.607 207.045,179.533 206.856 C 179.391 206.488,170.745 202.000,170.180 202.000 C 169.994 202.000,169.131 201.505,168.261 200.900 C 167.391 200.295,165.761 199.430,164.639 198.978 C 158.956 196.686,161.963 193.425,167.886 195.457 C 168.939 195.818,171.150 196.430,172.800 196.818 C 174.450 197.206,176.520 197.789,177.400 198.113 C 184.217 200.629,187.192 198.071,180.800 195.190 C 179.810 194.743,178.550 194.105,178.000 193.770 C 177.450 193.436,176.280 192.836,175.400 192.438 C 174.520 192.039,173.086 191.228,172.213 190.636 C 171.341 190.043,169.496 189.018,168.113 188.359 C 166.731 187.699,165.600 187.027,165.600 186.866 C 165.600 186.704,165.060 186.254,164.400 185.864 C 163.729 185.467,163.200 184.816,163.200 184.387 C 163.200 183.383,165.019 182.158,165.702 182.702 C 166.508 183.343,177.081 187.788,181.128 189.187 C 184.714 190.427,184.878 190.448,185.416 189.738 C 185.910 189.086,185.872 188.919,185.088 188.304 C 184.599 187.921,183.840 187.266,183.400 186.848 C 182.960 186.430,182.183 185.962,181.674 185.809 C 181.164 185.655,180.174 185.039,179.474 184.441 C 178.773 183.842,177.120 182.635,175.800 181.760 C 168.078 176.640,167.499 176.046,169.007 174.794 C 170.017 173.956,174.179 174.538,175.949 175.765 C 176.771 176.334,177.634 176.800,177.868 176.800 C 178.101 176.800,178.799 177.205,179.419 177.700 C 182.482 180.147,187.261 182.205,187.888 181.347 C 189.021 179.798,186.396 177.285,180.496 174.267 C 175.771 171.850,175.231 171.215,177.205 170.398 C 179.595 169.408,182.060 170.352,188.943 174.894 C 189.854 175.495,190.870 176.112,191.200 176.264 C 191.530 176.417,192.430 176.933,193.200 177.411 C 194.904 178.468,204.886 183.717,208.200 185.298 C 209.520 185.927,210.870 186.606,211.200 186.805 C 222.005 193.331,229.089 193.488,219.000 186.977 C 217.680 186.126,216.459 185.203,216.287 184.927 C 216.115 184.652,215.035 183.796,213.887 183.026 C 212.739 182.256,210.900 180.793,209.800 179.775 C 208.700 178.757,207.350 177.629,206.800 177.268 C 202.839 174.673,194.073 167.097,193.883 166.104 C 193.592 164.588,193.648 164.571,196.913 165.179 C 201.422 166.017,202.519 166.092,203.700 165.640 C 205.495 164.954,205.127 162.417,202.628 158.242 C 201.556 156.451,201.461 155.990,201.515 152.842 C 201.549 150.816,201.328 148.539,200.977 147.307 C 200.373 145.183,200.431 144.469,201.482 141.135 C 202.029 139.399,202.005 139.025,201.147 135.735 C 199.867 130.831,199.762 121.459,200.976 120.569 C 203.221 118.924,205.432 122.765,207.555 132.000 C 208.077 134.270,208.451 135.093,209.090 135.381 C 209.586 135.605,210.186 136.512,210.543 137.581 L 211.151 139.400 211.175 137.533 C 211.190 136.389,211.009 135.603,210.706 135.502 C 210.386 135.395,210.163 134.220,210.073 132.169 C 209.933 128.979,210.506 126.342,211.190 127.035 C 211.605 127.455,213.903 133.918,214.377 136.000 C 215.008 138.770,216.907 143.831,218.340 146.558 C 226.214 161.554,228.177 164.797,232.075 169.258 C 234.664 172.220,236.561 170.638,234.813 166.976 C 232.064 161.217,232.085 161.302,231.793 155.000 C 231.603 150.883,231.215 147.745,230.559 145.001 C 228.467 136.254,228.438 131.306,230.479 131.213 C 230.867 131.195,233.402 135.105,234.101 136.800 C 236.372 142.303,239.238 141.393,240.400 134.800 C 240.652 133.370,241.146 131.754,241.498 131.209 C 242.411 129.795,242.407 120.793,241.491 117.200 C 240.406 112.944,239.795 104.034,240.536 103.292 C 242.795 101.033,244.903 107.575,245.404 118.400 C 245.542 121.370,245.828 124.359,246.039 125.041 C 246.394 126.188,248.233 128.354,248.524 127.968 C 248.594 127.876,249.045 127.281,249.526 126.646 C 250.318 125.601,250.403 124.998,250.428 120.246 C 250.455 115.142,250.658 111.750,251.580 101.000 C 251.825 98.140,252.089 94.729,252.166 93.419 C 252.397 89.508,255.589 87.797,255.604 91.576 C 255.765 131.032,255.659 129.411,257.997 128.202 C 259.345 127.505,260.000 125.799,260.000 122.989 C 260.000 120.300,260.890 119.330,262.046 120.757 C 262.461 121.270,262.800 121.932,262.800 122.230 C 262.800 124.649,267.501 125.020,268.427 122.674 C 268.703 121.973,269.244 121.040,269.628 120.600 C 270.289 119.843,271.569 117.994,276.040 111.337 C 278.666 107.428,281.600 106.325,281.600 109.247 C 281.600 110.239,280.044 112.859,278.778 114.000 C 278.002 114.699,273.785 123.006,272.452 126.460 C 271.574 128.737,269.965 132.874,268.879 135.653 C 266.136 142.665,264.521 148.332,263.993 152.800 C 263.745 154.890,263.171 159.120,262.716 162.200 C 261.385 171.214,262.109 185.109,264.122 189.172 C 266.128 193.222,266.404 191.834,266.385 177.798 C 266.371 167.354,266.527 165.396,267.758 160.491 C 268.074 159.231,268.459 157.210,268.614 156.000 C 268.769 154.790,269.123 153.170,269.401 152.400 C 269.679 151.630,270.591 148.120,271.427 144.600 C 273.203 137.118,273.712 136.015,274.894 137.085 C 276.015 138.100,275.770 142.475,274.492 144.271 C 273.834 145.195,273.600 146.090,273.600 147.686 C 273.600 148.876,273.227 151.272,272.772 153.011 C 272.316 154.751,271.788 158.070,271.597 160.387 C 271.407 162.704,270.984 166.490,270.658 168.800 C 269.206 179.075,269.443 183.056,271.458 182.205 C 275.720 180.406,276.569 178.548,277.600 168.756 C 278.751 157.825,280.050 154.221,282.500 155.159 C 283.788 155.652,283.991 157.367,283.032 159.661 C 282.720 160.409,282.280 162.667,282.056 164.680 C 281.812 166.862,281.315 168.991,280.824 169.954 C 279.148 173.238,280.060 177.239,282.169 175.857 C 283.541 174.958,283.826 174.126,284.155 170.059 C 284.328 167.928,284.725 166.132,285.251 165.099 C 285.706 164.209,286.239 162.338,286.437 160.942 C 286.634 159.546,287.157 157.731,287.598 156.908 C 288.039 156.085,288.400 155.079,288.400 154.673 C 288.400 153.768,290.684 148.439,291.443 147.572 C 291.746 147.227,292.332 145.967,292.745 144.772 C 295.994 135.385,299.857 132.667,299.759 139.838 C 299.726 142.223,299.543 143.080,298.876 143.982 C 298.414 144.608,297.929 145.633,297.798 146.260 C 297.362 148.352,296.665 150.596,296.330 150.980 C 295.678 151.730,296.012 152.400,297.039 152.400 C 298.076 152.400,300.239 150.336,302.867 146.836 C 304.593 144.538,305.676 143.228,307.652 141.046 C 309.821 138.649,311.685 135.093,312.394 132.000 C 312.671 130.790,313.260 129.199,313.703 128.465 C 314.278 127.513,314.595 126.020,314.810 123.265 C 315.021 120.567,315.476 118.390,316.319 116.057 C 317.574 112.582,317.796 112.286,323.100 107.018 C 325.497 104.637,326.000 103.916,326.000 102.856 C 326.000 100.155,325.209 100.509,317.851 106.500 C 313.822 109.781,313.559 109.915,312.845 109.054 C 312.365 108.476,314.028 104.384,315.820 101.736 C 316.291 101.040,317.096 99.349,317.609 97.977 L 318.542 95.482 317.627 94.741 C 316.434 93.775,313.375 93.754,311.954 94.702 C 311.378 95.086,310.147 95.908,309.217 96.528 C 306.811 98.134,301.663 103.417,299.015 106.997 C 296.676 110.159,295.966 110.509,294.960 108.992 C 294.302 107.998,295.566 104.958,297.752 102.276 C 298.504 101.354,299.759 99.504,300.541 98.164 C 301.323 96.825,302.259 95.483,302.621 95.183 C 302.983 94.882,304.116 93.390,305.139 91.866 C 306.163 90.342,307.426 88.460,307.946 87.684 C 310.071 84.515,308.784 82.016,306.230 84.351 C 302.209 88.027,298.674 88.185,300.578 84.604 C 302.770 80.480,299.092 78.254,294.600 80.986 C 293.720 81.522,292.170 82.409,291.155 82.959 C 290.140 83.508,288.083 85.328,286.584 87.003 C 284.428 89.412,282.050 91.200,281.001 91.200 C 280.946 91.200,280.789 90.646,280.654 89.970 C 280.358 88.489,282.464 84.432,285.300 81.018 C 285.905 80.290,286.400 79.566,286.400 79.409 C 286.400 79.252,286.741 78.644,287.159 78.058 C 289.604 74.624,289.036 72.400,285.714 72.400 C 283.473 72.400,283.463 72.405,279.885 75.206 C 276.462 77.887,274.997 75.058,277.631 70.856 C 279.341 68.129,279.368 67.937,278.576 64.093 C 278.258 62.550,279.454 59.431,281.004 57.758 C 281.552 57.167,282.000 56.459,282.000 56.186 C 282.000 55.912,282.979 54.694,284.175 53.478 C 287.460 50.140,286.238 47.667,281.800 48.674 M263.600 341.638 C 264.590 342.049,266.536 342.646,267.925 342.963 C 269.314 343.281,270.844 343.796,271.325 344.109 C 271.806 344.421,273.100 344.990,274.200 345.372 C 278.777 346.963,280.588 348.682,279.039 349.967 C 278.295 350.585,274.342 349.886,272.800 348.864 C 265.826 344.243,245.279 344.147,240.458 348.713 C 240.160 348.995,239.260 349.585,238.458 350.023 C 235.681 351.541,234.567 352.293,233.186 353.578 C 232.424 354.288,231.170 355.341,230.400 355.917 C 229.630 356.494,228.182 357.783,227.181 358.783 C 223.123 362.838,214.726 366.005,211.900 364.547 C 208.564 362.826,213.116 355.830,220.501 351.329 C 225.359 348.368,231.119 345.236,232.207 344.962 C 232.850 344.801,233.922 344.361,234.588 343.984 C 235.255 343.607,236.672 343.089,237.737 342.834 C 238.803 342.579,240.084 342.101,240.585 341.773 C 242.856 340.285,260.101 340.183,263.600 341.638 M235.679 366.745 C 237.318 367.154,239.096 367.764,239.630 368.100 C 240.163 368.436,241.295 368.832,242.143 368.981 C 242.992 369.130,244.432 369.580,245.343 369.981 C 247.027 370.721,249.956 371.530,255.000 372.649 C 259.056 373.548,266.872 373.212,272.600 371.891 C 279.668 370.261,282.228 369.879,283.060 370.330 C 286.088 371.971,289.534 379.906,287.920 381.520 C 287.656 381.784,286.390 382.000,285.107 382.000 C 282.043 382.000,280.279 382.761,279.613 384.370 C 278.574 386.878,274.601 387.404,269.200 385.748 C 266.534 384.931,260.941 384.625,257.977 385.133 C 256.560 385.376,253.446 385.698,251.059 385.849 L 246.717 386.123 243.905 383.162 C 241.284 380.402,239.605 377.638,239.596 376.067 C 239.579 373.219,236.974 370.392,233.842 369.824 C 232.984 369.669,231.851 369.259,231.323 368.913 L 230.362 368.283 231.456 367.142 C 232.057 366.514,232.583 366.000,232.624 366.000 C 232.665 366.000,234.040 366.335,235.679 366.745 M211.897 451.729 C 212.349 453.109,212.304 453.417,211.397 455.120 C 210.849 456.151,210.400 457.214,210.400 457.483 C 210.400 459.038,206.494 461.980,203.600 462.604 C 202.830 462.770,201.245 463.358,200.077 463.911 C 197.640 465.064,197.022 464.815,197.571 462.901 C 198.427 459.916,202.633 454.687,206.037 452.375 C 210.186 449.558,211.151 449.451,211.897 451.729 M174.000 453.506 C 178.101 456.192,183.600 462.618,183.600 464.724 C 183.600 467.927,181.551 467.643,178.466 464.013 C 177.130 462.441,175.838 461.524,172.824 460.012 C 168.637 457.911,167.600 456.730,167.600 454.062 C 167.600 451.280,170.250 451.049,174.000 453.506 M206.367 500.423 C 207.815 500.655,209.720 501.182,210.600 501.593 C 211.480 502.004,213.362 502.549,214.783 502.803 C 216.204 503.057,217.832 503.506,218.401 503.800 C 218.970 504.095,220.697 504.510,222.237 504.724 C 223.778 504.937,225.748 505.492,226.614 505.956 C 227.480 506.420,228.770 506.800,229.482 506.800 C 230.194 506.800,231.727 507.231,232.888 507.758 C 234.050 508.285,235.990 508.924,237.200 509.179 C 243.609 510.530,245.495 513.149,242.720 516.843 C 241.994 517.809,240.557 519.870,239.527 521.422 C 230.933 534.371,218.430 540.400,200.176 540.400 C 198.829 540.400,196.858 540.661,195.797 540.981 C 189.366 542.916,175.742 542.754,167.600 540.645 C 157.097 537.924,153.979 535.762,142.037 522.925 C 135.895 516.324,137.232 510.346,145.157 508.963 C 145.951 508.825,147.590 508.300,148.800 507.798 C 151.668 506.606,156.978 504.939,158.986 504.600 C 159.859 504.452,161.119 504.044,161.786 503.692 C 163.033 503.035,167.455 501.933,171.933 501.163 C 175.395 500.567,177.517 500.853,182.200 502.547 C 187.804 504.573,190.645 504.361,197.600 501.401 C 201.002 499.953,202.442 499.793,206.367 500.423 M196.600 511.995 C 192.420 512.160,184.549 512.319,179.109 512.348 L 169.218 512.400 168.563 513.400 C 167.970 514.305,167.967 514.490,168.524 515.339 C 170.095 517.738,186.629 519.523,191.973 517.872 C 193.168 517.502,194.797 517.200,195.593 517.200 C 196.389 517.200,198.651 516.833,200.620 516.383 C 203.291 515.774,206.180 515.514,212.000 515.361 C 221.876 515.100,221.660 515.142,221.078 513.600 C 220.828 512.939,220.348 512.318,220.012 512.221 C 218.729 511.851,203.874 511.707,196.600 511.995 " stroke="none" fill="rgba(0, 0, 0, 0)" fill-rule="evenodd"></path></g></svg>